<?xml version="1.0" encoding="UTF-8"?>
<svg width="80px" height="80px" viewBox="0 0 80 80" version="1.1" xmlns="http://www.w3.org/2000/svg" xmlns:xlink="http://www.w3.org/1999/xlink">
    <!-- Generator: Sketch 61.1 (89650) - https://sketch.com -->
    <title>Syllabus - AAP Blue</title>
    <desc>Created with Sketch.</desc>
    <g id="Blackboard-Icons-★" stroke="none" stroke-width="1" fill="none" fill-rule="evenodd">
        <g id="Icons---Fill" transform="translate(-364.000000, -159.000000)">
            <g id="Syllabus-Icons" transform="translate(48.000000, 159.000000)">
                <g id="Syllabus---AAP-Blue" transform="translate(316.000000, 0.000000)">
                    <circle id="Oval" fill="#68ACE5" cx="40" cy="40" r="40"></circle>
                    <g id="Assignments" transform="translate(26.000000, 21.000000)" fill="#FFFFFF" fill-rule="nonzero">
                        <path d="M22.5101039,1.82192042 L21.1674635,1.82192042 L21.1674635,-3.90798505e-14 L18.8227664,-3.90798505e-14 L18.8227664,1.82192042 L16.5649733,1.82192042 L16.5649733,-3.90798505e-14 L14.2774324,-3.90798505e-14 L14.2774324,1.82192042 L11.9113287,1.82192042 L11.9113287,-3.90798505e-14 L9.60711539,-3.90798505e-14 L9.60711539,1.82192042 L7.2685611,1.82192042 L7.2685611,-3.90798505e-14 L4.92386397,-3.90798505e-14 L4.92386397,1.82192042 L3.5170457,1.82192042 C1.5777467,1.82192042 0,3.39966712 0,5.33896611 L0,31.9601776 C0,33.8994766 1.5777467,35.4772233 3.5170457,35.4772233 L22.5101039,35.4772233 C24.4494029,35.4772233 26.0271496,33.8994766 26.0271496,31.9601776 L26.0271496,5.33896611 C26.0271496,3.39966712 24.4494029,1.82192042 22.5101039,1.82192042 Z M23.6824525,31.4352552 C23.6824525,32.6577406 23.2916696,33.2689833 22.5101039,33.2689833 C21.7484106,33.2689833 18.5165353,33.2689833 3.5170457,33.2689833 C2.73547999,33.2689833 2.34469713,32.6577406 2.34469713,31.4352552 L2.34469713,6.02030751 C2.34469713,4.99818287 2.34469713,4.16661755 3.5170457,4.16661755 L4.92386397,4.16661755 L4.92386397,6.02030751 L7.2685611,6.02030751 L7.2685611,4.16661755 L9.60711539,4.16661755 L9.60711539,6.02030751 L11.9113287,6.02030751 L11.9113287,4.16661755 L14.2774324,4.16661755 L14.2774324,6.02030751 L16.5649733,6.02030751 L16.5649733,4.16661755 L18.8227664,4.16661755 L18.8227664,6.02030751 L21.1674635,6.02030751 L21.1674635,4.16661755 L22.5101039,4.16661755 C23.6824525,4.16661755 23.6824525,4.99818287 23.6824525,6.02030751 L23.6824525,31.4352552 Z" id="Calendar"></path>
                        <g id="Group" transform="translate(5.343750, 10.727223)">
                            <polygon id="Path" points="2.40224542 1.87548103 1.5487504 0.855072191 -8.43769499e-15 2.1501661 2.19380018 4.77294806 5.84198533 1.50353909 4.49484587 1.687539e-14"></polygon>
                            <path d="M8.37013902,1.63128737 L14.1556102,1.63128737 C14.7130692,1.63128737 15.1649791,2.08319722 15.1649791,2.64065627 C15.1649791,3.19811531 14.7130692,3.65002516 14.1556102,3.65002516 L8.37013902,3.65002516 C7.81267997,3.65002516 7.36077012,3.19811531 7.36077012,2.64065627 C7.36077012,2.08319722 7.81267997,1.63128737 8.37013902,1.63128737 Z" id="Path"></path>
                            <polygon id="Path" points="2.40224542 7.67987793 1.5487504 6.65946903 -8.43769499e-15 7.95456294 2.19380018 10.5773449 5.84198533 7.30793599 4.49484587 5.80465974"></polygon>
                            <path d="M8.37013902,7.4356842 L14.1556102,7.4356842 C14.7130692,7.4356842 15.1649791,7.88759405 15.1649791,8.4450531 C15.1649791,9.00251215 14.7130692,9.454422 14.1556102,9.454422 L8.37013902,9.454422 C7.81267997,9.454422 7.36077012,9.00251215 7.36077012,8.4450531 C7.36077012,7.88759405 7.81267997,7.4356842 8.37013902,7.4356842 Z" id="Path"></path>
                            <polygon id="Path" points="2.40224542 13.4842748 1.5487504 12.4638659 -8.43769499e-15 13.7589598 2.19380018 16.3817418 5.84198533 13.1123329 4.49484587 11.6090566"></polygon>
                            <path d="M8.37013902,13.2403439 L14.1556102,13.2403439 C14.7130692,13.2403439 15.1649791,13.6922538 15.1649791,14.2497128 C15.1649791,14.8071719 14.7130692,15.2590817 14.1556102,15.2590817 L8.37013902,15.2590817 C7.81267997,15.2590817 7.36077012,14.8071719 7.36077012,14.2497128 C7.36077012,13.6922538 7.81267997,13.2403439 8.37013902,13.2403439 Z" id="Path"></path>
                        </g>
                    </g>
                </g>
            </g>
        </g>
    </g>
</svg>