<?xml version="1.0" encoding="UTF-8"?>
<svg width="80px" height="80px" viewBox="0 0 80 80" version="1.1" xmlns="http://www.w3.org/2000/svg" xmlns:xlink="http://www.w3.org/1999/xlink">
    <!-- Generator: Sketch 61.1 (89650) - https://sketch.com -->
    <title>Announcement - AAP Blue</title>
    <desc>Created with Sketch.</desc>
    <g id="Blackboard-Icons-★" stroke="none" stroke-width="1" fill="none" fill-rule="evenodd">
        <g id="Icons---Fill" transform="translate(-364.000000, -39.000000)">
            <g id="Announcement-Icons" transform="translate(48.000000, 39.000000)">
                <g id="Announcement---AAP-Blue" transform="translate(316.000000, 0.000000)">
                    <circle id="Oval" fill="#68ACE5" cx="40" cy="40" r="40"></circle>
                    <path d="M45.6875,27 C47.2383125,27 48.5,28.2616875 48.5,29.8125 L48.5,29.8125 L48.5,46.6875 C48.5,48.2383125 47.2383125,49.5 45.6875625,49.5 C44.279375,49.5 43.1096875,48.459625 42.9064375,47.10725 L42.9064375,47.10725 L42.05125,46.2520625 C40.56275,44.763625 38.37075,43.875 36.1875,43.875 L36.1875,43.875 L35.25,43.875 L35.25,48.5625 C35.25,50.1133125 33.9883125,51.375 32.4375625,51.375 C30.88675,51.375 29.625,50.1133125 29.625,48.5625 L29.625,48.5625 L29.625,43.71375 C28.82725,43.4308125 28.1941875,42.79775 27.91125,42 L27.91125,42 L27.75,42 C25.68225,42 24,40.31775 24,38.25 C24,36.18225 25.68225,34.5 27.75,34.5 L27.75,34.5 L27.91125,34.5 C28.29825,33.4088125 29.3403125,32.625 30.5625,32.625 L30.5625,32.625 L36.1875,32.625 C38.3708125,32.625 40.5628125,31.736375 42.05125,30.2479375 L42.05125,30.2479375 L42.9064375,29.39275 C43.1096875,28.0403125 44.2793125,27 45.6875,27 Z M33.375,43.875 L31.5,43.875 L31.5,48.5625 C31.5,49.0794375 31.9205625,49.5 32.4375,49.5 C32.9544375,49.5 33.375,49.0794375 33.375,48.5625 L33.375,48.5625 L33.375,43.875 Z M45.6875625,28.875 C45.1705625,28.875 44.75,29.2955625 44.75,29.8125 L44.75,29.8125 L44.75,46.6875 C44.75,47.2044375 45.1705625,47.625 45.6875,47.625 L45.6875,47.625 L45.7967291,47.618681 C46.2623721,47.5644279 46.625,47.1675134 46.625,46.6875 L46.625,46.6875 L46.625,29.8125 C46.625,29.2955625 46.2044375,28.875 45.6875625,28.875 Z M51.975375,40.9592457 L54.8387872,43.6931163 L53.5129747,45.0189288 L50.6495625,42.2850582 L51.975375,40.9592457 Z M42.875,32.0408125 C41.2911875,33.411625 39.254875,34.2633125 37.1188125,34.4574375 L37.1188125,34.4574375 L37.11875,42.0425 C39.254875,42.2366875 41.2911875,43.088375 42.875,44.459125 L42.875,44.459125 Z M35.25,34.5 L30.5625,34.5 C30.0455625,34.5 29.625,34.9205625 29.625,35.4375 L29.625,35.4375 L29.625,41.0625 C29.625,41.5794375 30.0455625,42 30.5625,42 L30.5625,42 L35.25,42 L35.25,34.5 Z M27.75,36.375 C26.716125,36.375 25.875,37.216125 25.875,38.25 C25.875,39.283875 26.716125,40.125 27.75,40.125 L27.75,40.125 Z M52.25,37.2092457 L56.7492526,37.3125 L56.7492526,39.1875 L52.25,39.0842457 L52.25,37.2092457 Z M53.5129747,31 L54.8387872,32.3258125 L51.975375,35.0596832 L50.6495625,33.7338707 L53.5129747,31 Z" id="Announcement" fill="#FFFFFF" fill-rule="nonzero"></path>
                </g>
            </g>
        </g>
    </g>
</svg>