<?xml version="1.0" encoding="UTF-8"?>
<svg width="80px" height="80px" viewBox="0 0 80 80" version="1.1" xmlns="http://www.w3.org/2000/svg" xmlns:xlink="http://www.w3.org/1999/xlink">
    <!-- Generator: Sketch 61.1 (89650) - https://sketch.com -->
    <title>Community - Bright Green</title>
    <desc>Created with Sketch.</desc>
    <g id="Blackboard-Icons-★" stroke="none" stroke-width="1" fill="none" fill-rule="evenodd">
        <g id="Icons---Fill" transform="translate(-724.000000, -399.000000)">
            <g id="AAP/Hopkins-Community-Icons" transform="translate(48.000000, 399.000000)">
                <g id="Community---Bright-Green" transform="translate(676.000000, 0.000000)">
                    <circle id="Oval" fill="#00785C" cx="40" cy="40" r="40"></circle>
                    <path d="M50.2392824,30.8328365 C50.9777105,30.8328365 51.7012209,30.6389058 52.3352249,30.2585035 L58.3545331,26.7006224 L58.3545331,25.0372944 L51.581879,28.9830367 C51.0672169,29.2813915 50.4854251,29.4380277 49.8961743,29.4305689 L40.9306124,29.3261447 C40.4830802,29.1620495 40.1250544,29.0576254 39.9907948,29.0054133 C37.1862596,28.3788682 34.9933518,28.6250109 33.5015778,29.0277899 C32.3827472,29.3261447 31.189328,29.2142616 30.1301685,28.7294351 L22,25 L22,39.9028225 L22.8428523,40.3652725 C24.0884836,41.0440297 25.0805134,42.0957304 25.6995996,43.3711972 L25.2222319,43.7590584 C23.9393062,44.6914172 23.663328,46.4964638 24.5061804,47.7719305 C24.9760892,48.3910168 25.6399286,48.7863369 26.4007334,48.9205965 C26.4902398,48.9280554 26.6244995,48.9355143 26.7214648,48.9355143 C26.997443,48.950432 27.2659623,48.9205965 27.4971873,48.8833022 C27.512105,49.524765 27.6612824,50.0767214 28.0416848,50.5988423 C28.548888,51.307435 29.354446,51.6281664 30.2196749,51.6729196 C30.443441,51.6878374 30.674666,51.6952962 30.8536789,51.710214 C30.7716313,52.3889712 30.9655619,53.0826461 31.3907175,53.6495202 C31.8606263,54.2686064 32.5244658,54.6639266 33.2852705,54.7981862 C33.374777,54.8056451 33.5090366,54.813104 33.6060019,54.813104 C34.2847591,54.8503983 34.9336808,54.6564677 35.4558017,54.2760653 L35.7392388,54.0597581 C35.8063686,54.4699959 35.9257106,54.8429394 36.1793121,55.1785886 C36.5597145,55.7007095 37.1340475,56.0512764 37.8128047,56.1780772 C37.9023111,56.1855361 37.9918176,56.1855361 38.0887829,56.1929949 C38.6332804,56.2228304 39.1852368,56.0661941 39.6626045,55.730545 L39.7073577,55.730545 L40.0430069,56.2004538 C40.6322576,57.050765 41.8555123,57.2521545 42.7058235,56.6629038 C43.4144162,56.1557006 43.6978532,55.1636709 43.3771218,54.3730306 L43.4367928,54.4625371 C43.9962081,55.2904717 45.0553676,55.6484974 45.9802675,55.268095 C47.0021327,54.8503983 47.4123706,53.7464855 47.1438513,52.799209 C47.8300673,53.5674726 49.0085688,53.7166501 49.85888,53.1273993 L49.9036332,53.0826461 C50.7539444,52.4933953 51.0000871,51.367106 50.545096,50.4720415 C51.2835242,51.1507987 52.4620257,51.2552229 53.3123369,50.6659722 C54.3043666,49.9424618 54.565427,48.547653 53.8419166,47.5481644 L52.7827571,46.0340138 L55.087548,43.3488206 C55.6917164,42.6402279 56.4152268,42.0435183 57.2207848,41.5736095 L58.3545331,40.9172289 L58.3545331,39.1420178 L56.7881703,40.0296233 C55.8931059,40.5368265 55.087548,41.1932071 54.4162496,41.9763884 L51.9399048,44.8480535 C51.2014766,44.1692963 50.0229751,44.0648721 49.1726639,44.6541228 C48.1806342,45.3776332 47.9195737,46.7724419 48.6430842,47.7719305 L48.6803785,47.8688959 L48.6356253,47.8688959 C47.9344915,47.3766104 46.9797561,47.3243983 46.2264102,47.8316015 L46.181657,47.8763547 C45.5178176,48.3388047 45.204545,49.1443627 45.3462635,49.927544 L45.1075797,50.099098 C44.4437403,49.7485311 43.6232645,49.7485311 42.9594251,50.2109811 C42.3477978,50.6361367 42.0345252,51.3894826 42.0867373,52.0756986 L41.4303567,52.4933953 C40.9380713,52.3740534 40.3861149,52.4859365 39.9609593,52.7768324 C39.4388384,53.1572348 39.1330247,53.7837799 39.1479425,54.3730306 L38.8197522,54.581879 C38.6258215,54.753433 38.3050901,54.8280217 38.0365708,54.7683507 C37.7680515,54.7086798 37.4995322,54.5595024 37.3279781,54.3208185 C37.1564241,54.1268879 37.0818354,53.8061565 37.1415064,53.5376372 C37.2011774,53.2691178 37.3503548,53.0005985 37.5890386,52.8290445 L41.1469197,50.1513101 C41.3333914,50.0245093 41.4378156,49.8454964 41.4452745,49.6217303 C41.4676511,49.2114925 41.1170842,48.8609256 40.7143052,48.8609256 C40.5576689,48.8609256 40.4308681,48.8982199 40.2966085,48.9728086 L34.6129494,53.090105 C34.2847591,53.2989533 33.9118156,53.4182952 33.5090366,53.3511654 C33.1062576,53.2840356 32.7482319,53.0826461 32.5393835,52.7544558 C32.0694747,52.1353696 32.2111932,51.1880931 32.8750327,50.7256431 L39.6476868,45.8922953 C39.7968642,45.7580356 39.9012883,45.5715639 39.9012883,45.3254211 C39.9087472,44.9375599 39.5880158,44.6093696 39.2001546,44.5944519 C38.9763884,44.586993 38.7973756,44.6690406 38.6481982,44.8405946 L32.0172626,49.6366481 C31.8307908,49.7186957 31.7338255,49.8529553 31.592107,49.9797561 C30.7940079,50.4869593 29.6155064,50.3750762 29.1903508,49.8082021 C28.7651952,49.1965747 28.8547017,48.376099 29.3842814,47.861437 L30.0481209,47.398987 L37.4174846,42.3717086 C37.6039563,42.2449078 37.7083805,42.0658949 37.7158394,41.8421288 C37.7307571,41.5959861 37.6114152,41.3647611 37.4100257,41.2230426 C37.1489653,41.0365708 36.8879048,41.0291119 36.6119266,41.1932071 L28.720442,46.5561347 C28.6682299,46.6456412 28.5787235,46.6829355 28.5265114,46.7276887 L27.7657066,47.2796451 C27.1466204,47.7495539 26.1993439,47.6078354 25.7368939,46.943996 C25.2669851,46.3249097 25.4087037,45.3776332 26.0725431,44.9151833 L40.952989,33.958103 C42.1464083,34.6592368 43.0265549,36.0689633 43.0265549,36.0689633 C44.4884935,40.6487096 46.3084578,40.6860039 47.4123706,40.1340475 C47.9867036,39.8506105 48.247764,39.1718533 48.0463745,38.5602259 C47.4645827,36.7924737 47.1289335,33.3688523 47.1289335,33.3688523 C46.7186957,32.4812468 45.4059345,31.548888 43.943996,30.7880832 L48.7251317,30.8626719 L50.2392824,30.8328365 Z" id="Path" fill="#FFFFFF" fill-rule="nonzero"></path>
                </g>
            </g>
        </g>
    </g>
</svg>