<?xml version="1.0" encoding="UTF-8"?>
<svg width="80px" height="80px" viewBox="0 0 80 80" version="1.1" xmlns="http://www.w3.org/2000/svg" xmlns:xlink="http://www.w3.org/1999/xlink">
    <!-- Generator: Sketch 61.1 (89650) - https://sketch.com -->
    <title>Schedule - Siena</title>
    <desc>Created with Sketch.</desc>
    <g id="Blackboard-Icons-★" stroke="none" stroke-width="1" fill="none" fill-rule="evenodd">
        <g id="Icons---Stroke" transform="translate(-1684.000000, -279.000000)">
            <g id="Course-Schedule-Icons" transform="translate(48.000000, 279.000000)">
                <g id="Schedule---Siena" transform="translate(1636.000000, 0.000000)">
                    <circle id="Oval" stroke="#A4522E" stroke-width="4" cx="40" cy="40" r="38"></circle>
                    <path d="M32.265625,25 L32.265625,27.34375 L47.734375,27.34375 L47.734375,25 L50.078125,25 L50.078125,27.34375 L51.484375,27.34375 C53.4228906,27.34375 55,28.9208594 55,30.859375 L55,30.859375 L55,51.484375 C55,53.4228906 53.4228906,55 51.484375,55 L51.484375,55 L28.515625,55 C26.5771094,55 25,53.4228906 25,51.484375 L25,51.484375 L25,30.859375 C25,28.9208594 26.5771094,27.34375 28.515625,27.34375 L28.515625,27.34375 L29.921875,27.34375 L29.921875,25 L32.265625,25 Z M52.65625,36.015625 L27.34375,36.015625 L27.34375,51.484375 C27.34375,52.1305469 27.8694531,52.65625 28.515625,52.65625 L28.515625,52.65625 L51.484375,52.65625 C52.1305469,52.65625 52.65625,52.1305469 52.65625,51.484375 L52.65625,51.484375 L52.65625,36.015625 Z M31.595122,47.5 L31.595122,49.695122 L29.4,49.695122 L29.4,47.5 L31.595122,47.5 Z M36.195122,47.5 L36.195122,49.695122 L34,49.695122 L34,47.5 L36.195122,47.5 Z M46,47.5 L46,49.695122 L39,49.695122 L39,47.5 L46,47.5 Z M45.8902439,43.2926829 L45.8902439,45.4878049 L29.3902439,45.4878049 L29.3902439,43.2926829 L45.8902439,43.2926829 Z M50.6097561,43.2926829 L50.6097561,45.4878049 L48.4146341,45.4878049 L48.4146341,43.2926829 L50.6097561,43.2926829 Z M50.3902439,38.902439 L50.3902439,41.097561 L29.3902439,41.097561 L29.3902439,38.902439 L50.3902439,38.902439 Z M29.921875,29.6875 L28.515625,29.6875 C27.8694531,29.6875 27.34375,30.2132031 27.34375,30.859375 L27.34375,30.859375 L27.34375,33.671875 L52.65625,33.671875 L52.65625,30.859375 C52.65625,30.2132031 52.1305469,29.6875 51.484375,29.6875 L51.484375,29.6875 L50.078125,29.6875 L50.078125,32.03125 L47.734375,32.03125 L47.734375,29.6875 L32.265625,29.6875 L32.265625,32.03125 L29.921875,32.03125 L29.921875,29.6875 Z" id="Course-Schedule" fill="#000000" fill-rule="nonzero"></path>
                </g>
            </g>
        </g>
    </g>
</svg>