<?xml version="1.0" encoding="UTF-8"?>
<svg width="80px" height="80px" viewBox="0 0 80 80" version="1.1" xmlns="http://www.w3.org/2000/svg" xmlns:xlink="http://www.w3.org/1999/xlink">
    <!-- Generator: Sketch 61.1 (89650) - https://sketch.com -->
    <title>Assignments - Black</title>
    <desc>Created with Sketch.</desc>
    <g id="Blackboard-Icons-★" stroke="none" stroke-width="1" fill="none" fill-rule="evenodd">
        <g id="Icons---Fill" transform="translate(-1804.000000, -1599.000000)">
            <g id="Assignments-Icons" transform="translate(48.000000, 1599.000000)">
                <g id="Assignments---Black" transform="translate(1756.000000, 0.000000)">
                    <circle id="Oval" fill="#000000" cx="40" cy="40" r="40"></circle>
                    <path d="M32.265625,25 L32.265625,27.34375 L47.734375,27.34375 L47.734375,25 L50.078125,25 L50.078125,27.34375 L51.484375,27.34375 C53.4228906,27.34375 55,28.9208594 55,30.859375 L55,30.859375 L55,51.484375 C55,53.4228906 53.4228906,55 51.484375,55 L51.484375,55 L28.515625,55 C26.5771094,55 25,53.4228906 25,51.484375 L25,51.484375 L25,30.859375 C25,28.9208594 26.5771094,27.34375 28.515625,27.34375 L28.515625,27.34375 L29.921875,27.34375 L29.921875,25 L32.265625,25 Z M52.65625,36.015625 L27.34375,36.015625 L27.34375,51.484375 C27.34375,52.1305469 27.8694531,52.65625 28.515625,52.65625 L28.515625,52.65625 L51.484375,52.65625 C52.1305469,52.65625 52.65625,52.1305469 52.65625,51.484375 L52.65625,51.484375 L52.65625,36.015625 Z M45.3442411,39.4206358 L47.4098341,41.7086277 L38.4112249,49.772948 L33.6930879,44.5967919 L36.0456354,42.4905824 L38.750739,45.4985935 L45.3442411,39.4206358 Z M29.921875,29.6875 L28.515625,29.6875 C27.8694531,29.6875 27.34375,30.2132031 27.34375,30.859375 L27.34375,30.859375 L27.34375,33.671875 L52.65625,33.671875 L52.65625,30.859375 C52.65625,30.2132031 52.1305469,29.6875 51.484375,29.6875 L51.484375,29.6875 L50.078125,29.6875 L50.078125,32.03125 L47.734375,32.03125 L47.734375,29.6875 L32.265625,29.6875 L32.265625,32.03125 L29.921875,32.03125 L29.921875,29.6875 Z" id="Combined-Shape" fill="#FFFFFF" fill-rule="nonzero"></path>
                </g>
            </g>
        </g>
    </g>
</svg>