<?xml version="1.0" encoding="UTF-8"?>
<svg width="80px" height="80px" viewBox="0 0 80 80" version="1.1" xmlns="http://www.w3.org/2000/svg" xmlns:xlink="http://www.w3.org/1999/xlink">
    <!-- Generator: Sketch 61.1 (89650) - https://sketch.com -->
    <title>Groups - JHU Blue</title>
    <desc>Created with Sketch.</desc>
    <g id="Blackboard-Icons-★" stroke="none" stroke-width="1" fill="none" fill-rule="evenodd">
        <g id="Icons---Fill" transform="translate(-244.000000, -1239.000000)">
            <g id="Groups-Icons" transform="translate(48.000000, 1239.000000)">
                <g id="Groups---JHU-Blue" transform="translate(196.000000, 0.000000)">
                    <circle id="Oval" fill="#002D72" cx="40" cy="40" r="40"></circle>
                    <g id="Groups" transform="translate(20.000000, 27.000000)">
                        <path d="M29.007577,22.2442459 C28.8056869,22.3924165 28.6003357,22.5359202 28.3921005,22.6730071 C28.2963468,22.7360088 28.20117,22.7990104 28.1036859,22.860262 C27.8314226,23.0305998 27.5545447,23.1927706 27.2718985,23.3444413 C27.209601,23.3776921 27.1467266,23.4091929 27.0838522,23.4418605 C26.4343428,23.7784526 25.762337,24.0677934 25.0718726,24.3028829 C25.0476458,24.3110498 25.023419,24.3198 24.9986154,24.3279669 C24.6369436,24.4493034 24.2706571,24.5572228 23.9003329,24.6499753 C23.8991792,24.6499753 23.8980256,24.6505586 23.8968719,24.6505586 C23.5230867,24.7438944 23.1446869,24.8214797 22.7639797,24.8850647 C22.7535968,24.8868148 22.7432139,24.8891482 22.732831,24.8908982 C22.3746202,24.9498164 22.0135252,24.9924008 21.6512766,25.024485 C21.5872486,25.0303185 21.5232205,25.0344019 21.4586157,25.0390687 C21.1004049,25.0664861 20.7404636,25.0839866 20.3787918,25.0839866 C20.0130822,25.0839866 19.6485262,25.0659028 19.2857008,25.0384854 C19.2228264,25.0338186 19.1599521,25.0297351 19.0976545,25.0239017 C18.7319449,24.9912341 18.3679658,24.947483 18.0074477,24.8879815 C17.9912965,24.8850647 17.9751453,24.882148 17.958994,24.8792312 C17.1964261,24.7503112 16.4459715,24.5607229 15.7151292,24.3127998 C15.6926328,24.3052163 15.6695597,24.2970494 15.6470634,24.2894659 C15.2842379,24.1646293 14.9254503,24.0263757 14.5730077,23.8735384 C14.5707004,23.8723717 14.5678163,23.871205 14.565509,23.8700383 C14.2321018,23.7247845 13.9050397,23.5637803 13.5820155,23.3940259 C13.539907,23.3718586 13.4972216,23.3508581 13.4556899,23.3281075 C13.1609303,23.1688534 12.8725158,22.9967655 12.5881391,22.8170942 C12.5039221,22.7634261 12.4202818,22.7091747 12.3372185,22.65434 C12.0753381,22.4810854 11.8169187,22.3008308 11.5654212,22.1100758 C11.5394639,22.0902419 11.5146603,22.0692414 11.488703,22.0494075 C11.5071615,22.0389073 11.52562,22.028407 11.5440786,22.0179067 L16.1050656,19.5019245 C16.8895531,19.0690799 17.3769736,18.238975 17.3769736,17.3353681 L17.3763967,15.2341467 L17.2437261,15.0719758 C17.2310358,15.0573921 15.9839315,13.5231855 15.5126622,11.4458814 L15.4601708,11.2148754 L15.2634721,11.0859554 C14.9860173,10.904534 14.8198905,10.6011927 14.8198905,10.2739342 L14.8198905,8.2059637 C14.8198905,7.93470663 14.9335259,7.68211672 15.1411843,7.49252845 L15.3315379,7.31869059 L15.3315379,4.06943931 L15.3263464,3.99302065 C15.3246159,3.97902029 15.1544514,2.57606709 16.1315997,1.44962108 C16.9656945,0.488262715 18.3950768,0 20.3787918,0 C22.355008,0 23.7797756,0.484179276 24.6161777,1.43853746 C25.5921724,2.55331649 25.4323908,3.98252038 25.4312371,3.99418735 L25.4260457,7.31985729 L25.6163992,7.49369515 C25.8234808,7.68270007 25.937693,7.93587333 25.937693,8.20713039 L25.937693,10.2751009 C25.937693,10.6910284 25.6579309,11.0684549 25.2564579,11.1938748 L24.9697739,11.2831272 L24.8774813,11.5718847 C24.5371521,12.6411625 24.0526158,13.6287716 23.437716,14.5072945 C23.2865868,14.7231334 23.1394954,14.9144717 23.0131699,15.0608922 L22.8701163,15.2259798 L22.8701163,17.383786 C22.8701163,18.3241439 23.3869551,19.1699992 24.2187425,19.5900102 L29.1027538,22.0593245 C29.1339026,22.0750749 29.1644745,22.0914086 29.1950464,22.1077424 C29.1333257,22.1549936 29.0698745,22.1987448 29.007577,22.2442459 Z" id="Path" stroke="#FFFFFF" stroke-width="2"></path>
                        <path d="M39.5022326,18.6971744 C39.3634331,18.7990416 39.2222542,18.8977005 39.0790925,18.9919477 C39.0132619,19.0352613 38.9478278,19.078575 38.8808075,19.1206854 C38.6936265,19.2377927 38.5032729,19.3492851 38.3089536,19.4535587 C38.2661241,19.4764187 38.222898,19.4980755 38.1796718,19.5205344 C37.7331341,19.7519415 37.2711301,19.9508633 36.7964359,20.1124873 C36.7797799,20.118102 36.763124,20.1241178 36.7460715,20.1297325 C36.4974221,20.2131514 36.2456002,20.287346 35.9910023,20.3511133 C35.7316455,20.4156827 35.4714957,20.4690226 35.2097595,20.5127373 C35.2026212,20.5139405 35.195483,20.5155447 35.1883447,20.5167478 C34.9420748,20.5572541 34.693822,20.5865309 34.4447761,20.6085888 C34.4007568,20.6125993 34.3567375,20.6154067 34.3123217,20.6186151 C34.0660518,20.6374645 33.912298,20.6494961 33.5699428,20.6494961 C33.2275875,20.6494961 28.5213869,18.0912747 28.3513035,18.0140186 L30.631756,16.8118284 C31.1710911,16.5142478 31.5061927,15.9435506 31.5061927,15.3223209 L31.5057962,13.8777312 L31.4145851,13.7662387 C31.4058606,13.7562124 30.5484763,12.7014454 30.2244787,11.2732988 L30.1883908,11.1144821 L30.0531605,11.0258496 C29.8624103,10.9011224 29.7481982,10.6925753 29.7481982,10.4675851 L29.7481982,9.04585536 C29.7481982,8.85936613 29.8263224,8.68571057 29.9690876,8.55536863 L30.0999557,8.4358551 L30.0999557,6.20199484 L30.0963866,6.14945702 C30.0951969,6.13983177 29.9782087,5.17530144 30.6499982,4.40086981 C31.2234384,3.73993594 32.2061387,3.40425532 33.5699428,3.40425532 C34.9285914,3.40425532 35.9081192,3.73712857 36.4831456,4.39324982 C37.1541419,5.15966041 37.0442921,6.14223808 37.0434989,6.15025912 L37.0399298,8.4366572 L37.1707979,8.55617073 C37.3131665,8.68611162 37.3916873,8.86016823 37.3916873,9.04665747 L37.3916873,10.4683872 C37.3916873,10.7543374 37.1993509,11.0138181 36.9233382,11.1000443 L36.726243,11.1614052 L36.6627918,11.359926 C36.4288155,12.0950546 36.0956968,12.7740358 35.6729532,13.3780203 C35.5690519,13.5264095 35.4679265,13.6579546 35.3810777,13.7586187 L35.2827284,13.8721165 L35.2827284,15.3556082 C35.2827284,16.0021042 35.638055,16.5836298 36.2099089,16.8723873 L39.5676667,18.5700409 C39.5890814,18.5808693 39.6100996,18.5920988 39.6311178,18.6033282 C39.5886849,18.6358134 39.5450622,18.6658923 39.5022326,18.6971744 Z" id="Path" fill="#FFFFFF"></path>
                        <path d="M12.1338116,18.6971744 C11.9950121,18.7990416 11.8538332,18.8977005 11.7106714,18.9919477 C11.6448408,19.0352613 11.5794068,19.078575 11.5123865,19.1206854 C11.3252054,19.2377927 11.1348519,19.3492851 10.9405326,19.4535587 C10.897703,19.4764187 10.8544769,19.4980755 10.8112508,19.5205344 C10.364713,19.7519415 9.90270903,19.9508633 9.4280148,20.1124873 C9.41135887,20.118102 9.39470293,20.1241178 9.37765042,20.1297325 C9.12900106,20.2131514 8.87717915,20.287346 8.62258124,20.3511133 C8.36322449,20.4156827 8.10307461,20.4690226 7.84133844,20.5127373 C7.83420018,20.5139405 7.82706192,20.5155447 7.81992366,20.5167478 C7.57365373,20.5572541 7.32540094,20.5865309 7.07635501,20.6085888 C7.03233575,20.6125993 6.98831648,20.6154067 6.94390065,20.6186151 C6.69763071,20.6374645 6.54387696,20.6494961 6.20152171,20.6494961 C5.85916645,20.6494961 1.15296584,18.0912747 0.98288244,18.0140186 L3.26333496,16.8118284 C3.80267009,16.5142478 4.1377717,15.9435506 4.1377717,15.3223209 L4.13737513,13.8777312 L4.04616404,13.7662387 C4.0374395,13.7562124 3.18005527,12.7014454 2.85605762,11.2732988 L2.81996976,11.1144821 L2.68473941,11.0258496 C2.49398926,10.9011224 2.37977712,10.6925753 2.37977712,10.4675851 L2.37977712,9.04585536 C2.37977712,8.85936613 2.4579014,8.68571057 2.60066658,8.55536863 L2.73153466,8.4358551 L2.73153466,6.20199484 L2.72796553,6.14945702 C2.72677582,6.13983177 2.60978769,5.17530144 3.28157718,4.40086981 C3.85501732,3.73993594 4.83771765,3.40425532 6.20152171,3.40425532 C7.56017035,3.40425532 8.53969812,3.73712857 9.11472454,4.39324982 C9.7857209,5.15966041 9.67587102,6.14223808 9.67507788,6.15025912 L9.67150875,8.4366572 L9.80237683,8.55617073 C9.94474545,8.68611162 10.0232663,8.86016823 10.0232663,9.04665747 L10.0232663,10.4683872 C10.0232663,10.7543374 9.83092987,11.0138181 9.55491719,11.1000443 L9.35782192,11.1614052 L9.29437073,11.359926 C9.06039446,12.0950546 8.72727571,12.7740358 8.30453214,13.3780203 C8.20063081,13.5264095 8.09950548,13.6579546 8.01265666,13.7586187 L7.91430731,13.8721165 L7.91430731,15.3556082 C7.91430731,16.0021042 8.26963398,16.5836298 8.84148785,16.8723873 L12.1992456,18.5700409 C12.2206604,18.5808693 12.2416786,18.5920988 12.2626968,18.6033282 C12.2202638,18.6358134 12.1766411,18.6658923 12.1338116,18.6971744 Z" id="Path" fill="#FFFFFF" transform="translate(6.622790, 12.026876) scale(-1, 1) translate(-6.622790, -12.026876) "></path>
                    </g>
                </g>
            </g>
        </g>
    </g>
</svg>