<?xml version="1.0" encoding="UTF-8"?>
<svg width="80px" height="80px" viewBox="0 0 80 80" version="1.1" xmlns="http://www.w3.org/2000/svg" xmlns:xlink="http://www.w3.org/1999/xlink">
    <!-- Generator: Sketch 61.1 (89650) - https://sketch.com -->
    <title>Calendar - Bright Green</title>
    <desc>Created with Sketch.</desc>
    <g id="Blackboard-Icons-★" stroke="none" stroke-width="1" fill="none" fill-rule="evenodd">
        <g id="Icons---Fill" transform="translate(-724.000000, -2079.000000)">
            <g id="Calendar-Icons" transform="translate(48.000000, 2079.000000)">
                <g id="Calendar---Bright-Green" transform="translate(676.000000, 0.000000)">
                    <circle id="Oval" fill="#00785C" cx="40" cy="40" r="40"></circle>
                    <path d="M32.265625,25 L32.265625,27.34375 L47.734375,27.34375 L47.734375,25 L50.078125,25 L50.078125,27.34375 L51.484375,27.34375 C53.4228906,27.34375 55,28.9208594 55,30.859375 L55,30.859375 L55,51.484375 C55,53.4228906 53.4228906,55 51.484375,55 L51.484375,55 L28.515625,55 C26.5771094,55 25,53.4228906 25,51.484375 L25,51.484375 L25,30.859375 C25,28.9208594 26.5771094,27.34375 28.515625,27.34375 L28.515625,27.34375 L29.921875,27.34375 L29.921875,25 L32.265625,25 Z M52.65625,36.015625 L27.34375,36.015625 L27.34375,51.484375 C27.34375,52.1305469 27.8694531,52.65625 28.515625,52.65625 L28.515625,52.65625 L51.484375,52.65625 C52.1305469,52.65625 52.65625,52.1305469 52.65625,51.484375 L52.65625,51.484375 L52.65625,36.015625 Z M31.595122,47.5 L31.595122,49.695122 L29.4,49.695122 L29.4,47.5 L31.595122,47.5 Z M36.195122,47.5 L36.195122,49.695122 L34,49.695122 L34,47.5 L36.195122,47.5 Z M41.195122,47.5 L41.195122,49.695122 L39,49.695122 L39,47.5 L41.195122,47.5 Z M45.695122,47.5 L45.695122,49.695122 L43.5,49.695122 L43.5,47.5 L45.695122,47.5 Z M31.5853659,43.2926829 L31.5853659,45.4878049 L29.3902439,45.4878049 L29.3902439,43.2926829 L31.5853659,43.2926829 Z M36.3414634,43.2926829 L36.3414634,45.4878049 L34.1463415,45.4878049 L34.1463415,43.2926829 L36.3414634,43.2926829 Z M41.097561,43.2926829 L41.097561,45.4878049 L38.902439,45.4878049 L38.902439,43.2926829 L41.097561,43.2926829 Z M45.8536585,43.2926829 L45.8536585,45.4878049 L43.6585366,45.4878049 L43.6585366,43.2926829 L45.8536585,43.2926829 Z M50.6097561,43.2926829 L50.6097561,45.4878049 L48.4146341,45.4878049 L48.4146341,43.2926829 L50.6097561,43.2926829 Z M31.5853659,38.902439 L31.5853659,41.097561 L29.3902439,41.097561 L29.3902439,38.902439 L31.5853659,38.902439 Z M36.3414634,38.902439 L36.3414634,41.097561 L34.1463415,41.097561 L34.1463415,38.902439 L36.3414634,38.902439 Z M41.097561,38.902439 L41.097561,41.097561 L38.902439,41.097561 L38.902439,38.902439 L41.097561,38.902439 Z M45.8536585,38.902439 L45.8536585,41.097561 L43.6585366,41.097561 L43.6585366,38.902439 L45.8536585,38.902439 Z M50.6097561,38.902439 L50.6097561,41.097561 L48.4146341,41.097561 L48.4146341,38.902439 L50.6097561,38.902439 Z M29.921875,29.6875 L28.515625,29.6875 C27.8694531,29.6875 27.34375,30.2132031 27.34375,30.859375 L27.34375,30.859375 L27.34375,33.671875 L52.65625,33.671875 L52.65625,30.859375 C52.65625,30.2132031 52.1305469,29.6875 51.484375,29.6875 L51.484375,29.6875 L50.078125,29.6875 L50.078125,32.03125 L47.734375,32.03125 L47.734375,29.6875 L32.265625,29.6875 L32.265625,32.03125 L29.921875,32.03125 L29.921875,29.6875 Z" id="Calendar" fill="#FFFFFF" fill-rule="nonzero"></path>
                </g>
            </g>
        </g>
    </g>
</svg>