<?xml version="1.0" encoding="UTF-8"?>
<svg width="80px" height="80px" viewBox="0 0 80 80" version="1.1" xmlns="http://www.w3.org/2000/svg" xmlns:xlink="http://www.w3.org/1999/xlink">
    <!-- Generator: Sketch 61.1 (89650) - https://sketch.com -->
    <title>Wikis - Periwinkle</title>
    <desc>Created with Sketch.</desc>
    <g id="Blackboard-Icons-★" stroke="none" stroke-width="1" fill="none" fill-rule="evenodd">
        <g id="Icons---Fill" transform="translate(-604.000000, -759.000000)">
            <g id="Wiki-Icons" transform="translate(48.000000, 759.000000)">
                <g id="Wikis---Periwinkle" transform="translate(556.000000, 0.000000)">
                    <circle id="Oval" fill="#394DB1" cx="40" cy="40" r="40"></circle>
                    <path d="M56,32.6679688 L56,53.0996094 C56,54.6989492 54.6989492,56 53.0996094,56 L53.0996094,56 L25.9003906,56 C24.3010508,56 23,54.6989492 23,53.0996094 L23,53.0996094 L23,32.6679688 L56,32.6679688 Z M33.6992188,36.5351562 L29.8320312,36.5351562 C29.2976504,36.5351562 28.8652344,36.9675723 28.8652344,37.5019531 C28.8652344,38.036334 29.2976504,38.46875 29.8320312,38.46875 L29.8320312,38.46875 L31.069209,38.46875 L34.7160957,49.4738633 C34.9785488,50.2631562 36.2871406,50.2631562 36.5495937,49.4738633 L36.5495937,49.4738633 L39.5,40.5590938 L42.4504063,49.4738633 C42.5816328,49.8685098 42.9508203,50.1347656 43.3671875,50.1347656 C43.7835547,50.1347656 44.1527422,49.8685098 44.2839687,49.4738633 L44.2839687,49.4738633 L47.930791,38.46875 L49.1679688,38.46875 C49.7023496,38.46875 50.1347656,38.036334 50.1347656,37.5019531 C50.1347656,36.9675723 49.7023496,36.5351562 49.1679688,36.5351562 L49.1679688,36.5351562 L45.3007812,36.5351562 C44.7664004,36.5351562 44.3339844,36.9675723 44.3339844,37.5019531 C44.3339844,38.036334 44.7664004,38.46875 45.3007812,38.46875 L45.3007812,38.46875 L45.8933633,38.46875 L43.3671875,46.1108281 L40.8410117,38.46875 L41.4335938,38.46875 C41.9679746,38.46875 42.4003906,38.036334 42.4003906,37.5019531 C42.4003906,36.9675723 41.9679746,36.5351562 41.4335938,36.5351562 L41.4335938,36.5351562 L37.5664062,36.5351562 C37.0320254,36.5351562 36.5996094,36.9675723 36.5996094,37.5019531 C36.5996094,38.036334 37.0320254,38.46875 37.5664062,38.46875 L37.5664062,38.46875 L38.1589883,38.46875 L35.6328125,46.1108281 L33.1066367,38.46875 L33.6992188,38.46875 C34.2335996,38.46875 34.6660156,38.036334 34.6660156,37.5019531 C34.6660156,36.9675723 34.2335996,36.5351562 33.6992188,36.5351562 L33.6992188,36.5351562 Z M53.0996094,23 C54.6989492,23 56,24.3010508 56,25.9003906 L56,25.9003906 L56,30.734375 L46.2675781,30.734375 L46.2675781,23 Z M44.3339844,23 L44.3339844,30.734375 L23,30.734375 L23,25.9003906 C23,24.3010508 24.3010508,23 25.9003906,23 L25.9003906,23 L44.3339844,23 Z M29.8320312,26.8671875 L27.8984375,26.8671875 C27.3640566,26.8671875 26.9316406,27.2996035 26.9316406,27.8339844 C26.9316406,28.3683652 27.3640566,28.8007812 27.8984375,28.8007812 L27.8984375,28.8007812 L29.8320312,28.8007812 C30.3664121,28.8007812 30.7988281,28.3683652 30.7988281,27.8339844 C30.7988281,27.2996035 30.3664121,26.8671875 29.8320312,26.8671875 L29.8320312,26.8671875 Z M35.6328125,26.8671875 L33.6992188,26.8671875 C33.1648379,26.8671875 32.7324219,27.2996035 32.7324219,27.8339844 C32.7324219,28.3683652 33.1648379,28.8007812 33.6992188,28.8007812 L33.6992188,28.8007812 L35.6328125,28.8007812 C36.1671934,28.8007812 36.5996094,28.3683652 36.5996094,27.8339844 C36.5996094,27.2996035 36.1671934,26.8671875 35.6328125,26.8671875 L35.6328125,26.8671875 Z M41.4335938,26.8671875 L39.5,26.8671875 C38.9656191,26.8671875 38.5332031,27.2996035 38.5332031,27.8339844 C38.5332031,28.3683652 38.9656191,28.8007812 39.5,28.8007812 L39.5,28.8007812 L41.4335938,28.8007812 C41.9679746,28.8007812 42.4003906,28.3683652 42.4003906,27.8339844 C42.4003906,27.2996035 41.9679746,26.8671875 41.4335938,26.8671875 L41.4335938,26.8671875 Z" id="Combined-Shape" fill="#FFFFFF" fill-rule="nonzero"></path>
                </g>
            </g>
        </g>
    </g>
</svg>