<?xml version="1.0" encoding="UTF-8"?>
<svg width="80px" height="80px" viewBox="0 0 80 80" version="1.1" xmlns="http://www.w3.org/2000/svg" xmlns:xlink="http://www.w3.org/1999/xlink">
    <!-- Generator: Sketch 61.1 (89650) - https://sketch.com -->
    <title>Syllabus - Red</title>
    <desc>Created with Sketch.</desc>
    <g id="Blackboard-Icons-★" stroke="none" stroke-width="1" fill="none" fill-rule="evenodd">
        <g id="Icons---Stroke" transform="translate(-1324.000000, -159.000000)">
            <g id="Syllabus-Icons" transform="translate(48.000000, 159.000000)">
                <g id="Syllabus---Red" transform="translate(1276.000000, 0.000000)">
                    <circle id="Oval" stroke="#C13414" stroke-width="4" cx="40" cy="40" r="38"></circle>
                    <g id="Assignments" transform="translate(27.000000, 21.000000)" fill="#000000" fill-rule="nonzero">
                        <path d="M22.4792258,1.81942121 L21.1384272,1.81942121 L21.1384272,-3.90798505e-14 L18.7969464,-3.90798505e-14 L18.7969464,1.81942121 L16.5422504,1.81942121 L16.5422504,-3.90798505e-14 L14.2578474,-3.90798505e-14 L14.2578474,1.81942121 L11.8949895,1.81942121 L11.8949895,-3.90798505e-14 L9.59393691,-3.90798505e-14 L9.59393691,1.81942121 L7.25859051,1.81942121 L7.25859051,-3.90798505e-14 L4.9171097,-3.90798505e-14 L4.9171097,1.81942121 L3.51222122,1.81942121 C1.57558244,1.81942121 0,3.39500365 0,5.33164243 L0,31.9163365 C0,33.8529752 1.57558244,35.4285577 3.51222122,35.4285577 L22.4792258,35.4285577 C24.4158646,35.4285577 25.9914471,33.8529752 25.9914471,31.9163365 L25.9914471,5.33164243 C25.9914471,3.39500365 24.4158646,1.81942121 22.4792258,1.81942121 Z M23.6499662,31.3921342 C23.6499662,32.6129426 23.2597194,33.2233469 22.4792258,33.2233469 C21.7185774,33.2233469 18.4911354,33.2233469 3.51222122,33.2233469 C2.73172761,33.2233469 2.34148081,32.6129426 2.34148081,31.3921342 L2.34148081,6.01204921 C2.34148081,4.99132665 2.34148081,4.16090202 3.51222122,4.16090202 L4.9171097,4.16090202 L4.9171097,6.01204921 L7.25859051,6.01204921 L7.25859051,4.16090202 L9.59393691,4.16090202 L9.59393691,6.01204921 L11.8949895,6.01204921 L11.8949895,4.16090202 L14.2578474,4.16090202 L14.2578474,6.01204921 L16.5422504,6.01204921 L16.5422504,4.16090202 L18.7969464,4.16090202 L18.7969464,6.01204921 L21.1384272,6.01204921 L21.1384272,4.16090202 L22.4792258,4.16090202 C23.6499662,4.16090202 23.6499662,4.99132665 23.6499662,6.01204921 L23.6499662,31.3921342 Z" id="Calendar"></path>
                        <polygon id="Path" points="7.73536991 12.5854167 6.88304567 11.5664076 5.33641975 12.8597249 7.5272106 15.4789091 11.1703914 12.2139849 9.82509985 10.7125083"></polygon>
                        <path d="M13.6950771,12.341558 L19.4726121,12.341558 C20.0293065,12.341558 20.4805964,12.7928479 20.4805964,13.3495423 C20.4805964,13.9062366 20.0293065,14.3575266 19.4726121,14.3575266 L13.6950771,14.3575266 C13.1383827,14.3575266 12.6870928,13.9062366 12.6870928,13.3495423 C12.6870928,12.7928479 13.1383827,12.341558 13.6950771,12.341558 Z" id="Path"></path>
                        <polygon id="Path" points="7.73536991 18.3818514 6.88304567 17.3628423 5.33641975 18.6561596 7.5272106 21.2753438 11.1703914 18.0104197 9.82509985 16.5092055"></polygon>
                        <path d="M13.6950771,18.1379927 L19.4726121,18.1379927 C20.0293065,18.1379927 20.4805964,18.5892826 20.4805964,19.145977 C20.4805964,19.7026713 20.0293065,20.1539613 19.4726121,20.1539613 L13.6950771,20.1539613 C13.1383827,20.1539613 12.6870928,19.7026713 12.6870928,19.145977 C12.6870928,18.5892826 13.1383827,18.1379927 13.6950771,18.1379927 Z" id="Path"></path>
                        <polygon id="Path" points="7.73536991 24.1782861 6.88304567 23.159277 5.33641975 24.4525943 7.5272106 27.0717786 11.1703914 23.8068545 9.82509985 22.3056403"></polygon>
                        <path d="M13.6950771,23.9346899 L19.4726121,23.9346899 C20.0293065,23.9346899 20.4805964,24.3859799 20.4805964,24.9426742 C20.4805964,25.4993686 20.0293065,25.9506585 19.4726121,25.9506585 L13.6950771,25.9506585 C13.1383827,25.9506585 12.6870928,25.4993686 12.6870928,24.9426742 C12.6870928,24.3859799 13.1383827,23.9346899 13.6950771,23.9346899 Z" id="Path"></path>
                    </g>
                </g>
            </g>
        </g>
    </g>
</svg>