<?xml version="1.0" encoding="UTF-8"?>
<svg width="80px" height="80px" viewBox="0 0 80 80" version="1.1" xmlns="http://www.w3.org/2000/svg" xmlns:xlink="http://www.w3.org/1999/xlink">
    <!-- Generator: Sketch 61.1 (89650) - https://sketch.com -->
    <title>Grades - Bright Green</title>
    <desc>Created with Sketch.</desc>
    <g id="Blackboard-Icons-★" stroke="none" stroke-width="1" fill="none" fill-rule="evenodd">
        <g id="Icons---Stroke" transform="translate(-724.000000, -2319.000000)">
            <g id="My-Grades-Icons" transform="translate(48.000000, 2319.000000)">
                <g id="Grades---Bright-Green" transform="translate(676.000000, 0.000000)">
                    <circle id="Oval" stroke="#00785C" stroke-width="4" cx="40" cy="40" r="38"></circle>
                    <path d="M30.9342513,46.3461538 L30.9342513,47.8335725 L29.3445731,49.7773105 C29.9137345,49.9124066 30.3653243,50.1887556 30.7001045,50.6052921 C31.0343572,51.0224205 31.2019231,51.5181675 31.2019231,52.0929475 C31.2019231,52.9942788 30.8979718,53.7041549 30.2900105,54.222635 C29.6817562,54.741056 28.9260392,55 28.0225079,55 C26.8398759,55 25.8804892,54.6281601 25.1442308,53.8844804 L25.1442308,53.8844804 L26.0982839,52.3970617 C26.6448219,52.9043529 27.2361379,53.1577913 27.8719389,53.1577913 C28.1954659,53.1577913 28.4772627,53.0761535 28.7169189,52.9124042 C28.9568095,52.7493062 29.0767255,52.5098392 29.0767255,52.1944176 C29.0767255,51.4729974 28.4909774,51.1575758 27.3196571,51.2479161 L27.3196571,51.2479161 L26.8847125,50.3014147 C26.9740341,50.1888148 27.1551389,49.9436054 27.42832,49.5659638 C27.7016769,49.1889735 27.9386956,48.8848593 28.139552,48.6537396 C28.3404084,48.4225607 28.5465983,48.2058268 28.758825,48.003005 L28.758825,48.003005 L28.758825,47.9859552 C28.580299,47.9859552 28.3096382,47.9914609 27.9473113,48.003005 C27.5845742,48.0143124 27.3140892,48.0194036 27.1355632,48.0194036 L27.1355632,48.0194036 L27.1355632,48.9152293 L25.3619082,48.9152293 L25.3619082,46.3461538 L30.9342513,46.3461538 Z M54.4627419,48.3461538 C54.6084061,48.3461538 54.7341936,48.3997919 54.8408102,48.5068313 C54.9467211,48.6138114 55,48.7406246 55,48.8869156 L55,48.8869156 L55,52.1323151 C55,52.278843 54.9471328,52.405597 54.8408102,52.5125771 C54.7343701,52.6200309 54.6085825,52.6730769 54.4628595,52.6730769 L54.4628595,52.6730769 L34.0465795,52.6730769 C33.9010917,52.6730769 33.7754217,52.6196165 33.668864,52.5125771 C33.5625414,52.405597 33.5096154,52.278843 33.5096154,52.1323151 L33.5096154,52.1323151 L33.5096154,48.8868564 C33.5096154,48.7291984 33.5598951,48.5996026 33.660631,48.4982468 C33.7611905,48.3969502 33.8899772,48.3461538 34.0465795,48.3461538 L34.0465795,48.3461538 Z M28.084197,35.5288462 C28.9043592,35.5288462 29.5955409,35.7627435 30.1571519,36.2303014 C30.718881,36.6979184 30.9996865,37.3317678 30.9996865,38.1318494 C30.9996865,38.6952513 30.8087246,39.2107608 30.4266827,39.678437 C30.0445818,40.1459949 29.623226,40.5090656 29.1627333,40.7684187 C28.7018274,41.0277127 28.2779924,41.3121664 27.8903427,41.6218983 C27.502693,41.9314527 27.3032898,42.2272135 27.291897,42.5090033 L27.291897,42.5090033 L29.4323231,42.5090033 L29.4323231,41.4946786 L31.2019231,41.4946786 L31.2019231,44.1826923 L25.1010003,44.1826923 C25.0337061,43.7770571 25,43.4727716 25,43.2700132 C25,42.6954226 25.13205,42.1713292 25.3959729,41.6980881 C25.6600139,41.2248471 25.9776541,40.8419446 26.3483622,40.5489661 C26.7190113,40.2560468 27.0898965,39.9883466 27.4606046,39.7460429 C27.8314898,39.5037392 28.1488348,39.2587124 28.4129939,39.010844 C28.6770349,38.7629755 28.8091439,38.509424 28.8091439,38.2503076 C28.8091439,37.9685771 28.7274464,37.7518476 28.5647009,37.599468 C28.4017192,37.4473844 28.1798846,37.3713131 27.8987839,37.3713131 C27.3820357,37.3713131 26.9270328,37.697976 26.5337163,38.3516572 L26.5337163,38.3516572 L25.1010593,37.3545004 C25.3707671,36.779673 25.7723479,36.3317101 26.3059787,36.0106119 C26.8396685,35.6893953 27.4323883,35.5288462 28.084197,35.5288462 Z M54.4627419,37.6923077 C54.6084061,37.6923077 54.7341936,37.7458237 54.8408102,37.8528557 C54.9467211,37.9598877 55,38.086633 55,38.2330917 L55,38.2330917 L55,41.4782692 C55,41.624787 54.9471328,41.7513547 54.8408102,41.8585644 C54.7343701,41.9657148 54.6085825,42.0192308 54.4628595,42.0192308 L54.4628595,42.0192308 L34.0465795,42.0192308 C33.9010917,42.0192308 33.7754217,41.9657148 33.668864,41.8585644 C33.5625414,41.7513547 33.5096154,41.624787 33.5096154,41.4782692 L33.5096154,41.4782692 L33.5096154,38.2330917 C33.5096154,38.0753852 33.5598951,37.9457391 33.660631,37.844331 C33.7611905,37.7429229 33.8899772,37.6923077 34.0465795,37.6923077 L34.0465795,37.6923077 Z M29.3773571,25 L29.3773571,31.8347126 L31.2019231,31.8347126 L31.2019231,33.5096154 L25.5416318,33.5096154 L25.5416318,31.8347126 L27.3495684,31.8347126 C27.3495684,31.3722863 27.352409,30.6843354 27.3580902,29.7708005 C27.3624169,29.0601812 27.3651684,28.489575 27.3661776,28.0588146 L27.3666121,27.5207684 L27.3328205,27.5207684 C27.2426308,27.7122807 26.9609952,28.0170885 26.4879135,28.4343032 L26.4879135,28.4343032 L25.2884615,27.148469 L27.5862276,25 L29.3773571,25 Z M54.4626823,27.1826923 C54.6084053,27.1826923 54.7340165,27.2361506 54.8408095,27.3432447 C54.947132,27.4503389 55.0002344,27.5770877 55,27.7235503 L55,27.7235503 L55,30.9687574 C55,31.1152792 54.947132,31.2419688 54.8408095,31.349063 C54.7343693,31.4560387 54.6085817,31.5096154 54.4628587,31.5096154 L54.4628587,31.5096154 L34.0465795,31.5096154 C33.9010917,31.5096154 33.7754217,31.4560387 33.668864,31.349063 C33.5625414,31.2419688 33.5096154,31.1152792 33.5096154,30.9687574 L33.5096154,30.9687574 L33.5096154,27.7235503 C33.5096154,27.5770285 33.5627178,27.4503389 33.668864,27.3432447 C33.7754217,27.2361506 33.9010917,27.1826923 34.0465795,27.1826923 L34.0465795,27.1826923 Z" id="Numbered-List" fill="#000000" fill-rule="nonzero"></path>
                </g>
            </g>
        </g>
    </g>
</svg>