<?xml version="1.0" encoding="UTF-8"?>
<svg width="80px" height="80px" viewBox="0 0 80 80" version="1.1" xmlns="http://www.w3.org/2000/svg" xmlns:xlink="http://www.w3.org/1999/xlink">
    <!-- Generator: Sketch 61.1 (89650) - https://sketch.com -->
    <title>Survey - Fuschia</title>
    <desc>Created with Sketch.</desc>
    <g id="Blackboard-Icons-★" stroke="none" stroke-width="1" fill="none" fill-rule="evenodd">
        <g id="Icons---Fill" transform="translate(-1084.000000, -1719.000000)">
            <g id="Survey-Icons" transform="translate(48.000000, 1719.000000)">
                <g id="Survey---Fuschia" transform="translate(1036.000000, 0.000000)">
                    <circle id="Oval" fill="#A93190" cx="40" cy="40" r="40"></circle>
                    <path d="M40.125,22 C41.2650293,22 42.3416895,22.5497461 43.0266504,23.4583789 L43.0266504,23.4583789 L45.2291211,23.4583789 C46.1784961,23.4583789 46.9802832,24.0697852 47.2822949,24.9166895 L47.2822949,24.9166895 L50.3333105,24.9166895 C51.9419434,24.9166895 53.25,26.2247461 53.25,27.8333105 L53.25,27.8333105 L53.25,54.0833105 C53.25,55.6919434 51.9419434,57 50.3333789,57 L50.3333789,57 L29.9166895,57 C28.3080566,57 27,55.6919434 27,54.0833105 L27,54.0833105 L27,27.8333105 C27,26.2247461 28.3080566,24.9166895 29.9166895,24.9166211 L29.9166895,24.9166211 L32.9676367,24.9166211 C33.2696484,24.0697168 34.0714355,23.4583105 35.0208105,23.4583105 L35.0208105,23.4583105 L37.2232812,23.4583105 C37.9083105,22.5497461 38.9849707,22 40.125,22 Z M38.6666895,35.125 C35.4502441,35.125 32.8333789,37.7418652 32.8333789,40.9583105 C32.8333789,44.1747559 35.4502441,46.7916211 38.6666895,46.7916211 C40.012002,46.7916211 41.2367285,46.3153613 42.2246582,45.5473437 L46.172002,49.4946875 C46.3143945,49.6370801 46.5010156,49.7083105 46.6875684,49.7083105 C46.8741211,49.7083105 47.0606738,49.6370801 47.2031348,49.4946875 C47.4879883,49.209834 47.4879883,48.7484082 47.2031348,48.463623 L43.2557227,44.5163477 C44.0237402,43.528418 44.5,42.303623 44.5,40.9583105 C44.5,37.7418652 41.8831348,35.125 38.6666895,35.125 Z M38.6666895,36.5833105 C41.0792285,36.5833105 43.0416895,38.5457715 43.0416895,40.9583105 C43.0416895,43.3708496 41.0791602,45.3333105 38.6666895,45.3333105 C36.2541504,45.3333105 34.2916895,43.3708496 34.2916895,40.9583105 C34.2916895,38.5457715 36.2541504,36.5833105 38.6666895,36.5833105 Z M40.338623,38.9844336 L37.9375,41.3855566 L36.9946875,40.4427441 C36.709834,40.1578906 36.2484082,40.1578906 35.963623,40.4427441 C35.6787695,40.7275977 35.6787695,41.1890234 35.963623,41.4738086 L37.4219336,42.9321191 C37.5643262,43.0745117 37.7509473,43.1457422 37.9375,43.1457422 C38.1240527,43.1457422 38.3106055,43.0745117 38.4530664,42.9321191 L41.3697559,40.0154297 C41.6546094,39.7305762 41.6546094,39.2691504 41.3697559,38.9843652 C41.0849023,38.6996484 40.6234766,38.6996484 40.338623,38.9844336 Z M40.1250684,23.4583105 C39.3460449,23.4583105 38.6425586,23.8677148 38.2430664,24.5541797 C38.1120215,24.7784668 37.8720801,24.9166211 37.6128613,24.9166211 L37.6128613,24.9166211 L35.0208789,24.9166211 C34.6185156,24.9166211 34.2916895,25.2435156 34.2916895,25.6458105 L34.2916895,25.6458105 L34.2916895,26.375 C34.2916895,27.1789062 34.9460938,27.8333105 35.75,27.8333105 L35.75,27.8333105 L44.5001367,27.8333105 C45.304043,27.8333105 45.9584473,27.1789063 45.9584473,26.375 L45.9584473,26.375 L45.9584473,25.6458105 C45.9584473,25.2434473 45.6315527,24.9166211 45.2292578,24.9166211 L45.2292578,24.9166211 L42.6372754,24.9166211 C42.3780566,24.9166211 42.1381152,24.7784668 42.0070703,24.5541797 C41.6076465,23.8677832 40.9040918,23.4583105 40.1250684,23.4583105 Z" id="Survey" fill="#FFFFFF" fill-rule="nonzero"></path>
                </g>
            </g>
        </g>
    </g>
</svg>