<?xml version="1.0" encoding="UTF-8"?>
<svg width="80px" height="80px" viewBox="0 0 80 80" version="1.1" xmlns="http://www.w3.org/2000/svg" xmlns:xlink="http://www.w3.org/1999/xlink">
    <!-- Generator: Sketch 61.1 (89650) - https://sketch.com -->
    <title>Grades - Tan</title>
    <desc>Created with Sketch.</desc>
    <g id="Blackboard-Icons-★" stroke="none" stroke-width="1" fill="none" fill-rule="evenodd">
        <g id="Icons---Stroke" transform="translate(-1924.000000, -2199.000000)">
            <g id="My-Grades-Icons" transform="translate(48.000000, 2199.000000)">
                <g id="Grades---Tan" transform="translate(1876.000000, 0.000000)">
                    <circle id="Oval" stroke="#A39C99" stroke-width="4" cx="40" cy="40" r="38"></circle>
                    <path d="M46.2166602,22 L52.15625,28.6368244 L52.15625,54.8532996 C52.15625,56.0376553 51.2205136,57 50.0693221,57 L50.0693221,57 L29.0867832,57 C27.9366043,57 27,56.0376553 27,54.8532996 L27,54.8532996 L27,24.1464029 C27,22.9638323 27.9366043,22 29.0867832,22 L29.0867832,22 L46.2166602,22 Z M44.9556076,23.8033086 L29.0867832,23.8033086 C28.9023553,23.8033086 28.7527156,23.9568941 28.7527156,24.1464029 L28.7527156,24.1464029 L28.7527156,54.853374 C28.7527156,55.0424365 28.9023553,55.1976582 29.0867832,55.1976582 L29.0867832,55.1976582 L50.0683819,55.1976582 C50.2530991,55.1976582 50.4036067,55.0424365 50.4036067,54.853374 L50.4036067,54.853374 L50.4036067,29.9229257 L45.8328333,29.9229257 C45.3492707,29.9229257 44.9556076,29.5200336 44.9556076,29.0230564 L44.9556076,29.0230564 L44.9556076,23.8033086 Z M46.7279232,48.2582255 C47.0904867,48.2582255 47.3845587,48.5606363 47.3845587,48.9334807 C47.3845587,49.3063252 47.0904867,49.608736 46.7279232,49.608736 L31.8445222,49.608736 C31.4820311,49.608736 31.1878867,49.3063252 31.1878867,48.9334807 C31.1878867,48.5606363 31.4820311,48.2582255 31.8445222,48.2582255 L46.7279232,48.2582255 Z M46.7279232,43.794356 C47.0904867,43.794356 47.3845587,44.0967669 47.3845587,44.4696113 C47.3845587,44.8424557 47.0904867,45.1448666 46.7279232,45.1448666 L31.8445222,45.1448666 C31.4820311,45.1448666 31.1878867,44.8424557 31.1878867,44.4696113 C31.1878867,44.0967669 31.4820311,43.794356 31.8445222,43.794356 L46.7279232,43.794356 Z M46.7279232,39.405234 C47.0904867,39.405234 47.3845587,39.7077192 47.3845587,40.0804892 C47.3845587,40.4532593 47.0904867,40.7557445 46.7279232,40.7557445 L31.8445222,40.7557445 C31.4820311,40.7557445 31.1878867,40.4533337 31.1878867,40.0804892 C31.1878867,39.7076448 31.4820311,39.405234 31.8445222,39.405234 L46.7279232,39.405234 Z M35.5471363,30.159375 L37.5822285,35.628125 L36.02229,35.628125 L35.7174744,34.7585041 L33.3865318,34.7585041 L33.0817162,35.628125 L31.5128125,35.628125 L33.5568699,30.159375 L35.5471363,30.159375 Z M40.4241855,31.6027664 L40.4241855,32.947541 L41.7779252,32.947541 L41.7779252,33.9606045 L40.4241855,33.9695697 L40.4241855,35.3053791 L39.4111219,35.3053791 L39.4111219,33.9695697 L38.0663473,33.9695697 L38.0663473,32.947541 L39.4111219,32.947541 L39.4111219,31.6027664 L40.4241855,31.6027664 Z M34.5520031,31.360707 L34.3906301,31.8627561 L33.8437551,33.4316598 L35.2512859,33.4316598 L34.7044109,31.8627561 C34.6416547,31.6655225 34.5878637,31.5041496 34.5520031,31.360707 L34.5520031,31.360707 Z M46.7091911,25.2118321 L46.7091911,28.1214765 L49.3125893,28.1214765 L46.7091911,25.2118321 Z" id="Combined-Shape" fill="#000000" fill-rule="nonzero"></path>
                </g>
            </g>
        </g>
    </g>
</svg>