<?xml version="1.0" encoding="UTF-8"?>
<svg width="80px" height="80px" viewBox="0 0 80 80" version="1.1" xmlns="http://www.w3.org/2000/svg" xmlns:xlink="http://www.w3.org/1999/xlink">
    <!-- Generator: Sketch 61.1 (89650) - https://sketch.com -->
    <title>Discussions - AAP Blue</title>
    <desc>Created with Sketch.</desc>
    <g id="Blackboard-Icons-★" stroke="none" stroke-width="1" fill="none" fill-rule="evenodd">
        <g id="Icons---Fill" transform="translate(-364.000000, -639.000000)">
            <g id="Discussions-Icons" transform="translate(48.000000, 639.000000)">
                <g id="Discussions---AAP-Blue" transform="translate(316.000000, 0.000000)">
                    <circle id="Oval" fill="#68ACE5" cx="40" cy="40" r="40"></circle>
                    <path d="M52.1881409,26 C54.8413391,26 57,28.1618676 57,30.8199612 L57,30.8199612 L57,46.3758642 C57,49.0335298 54.8413391,51.1958254 52.1881409,51.1958254 L52.1881409,51.1958254 L36.9224243,51.1958254 L26.7947693,58.254902 L26.7947693,51.1958254 C24.1492615,51.1864101 22,49.0279663 22,46.3758642 L22,46.3758642 L22,30.8199612 C22,28.1618676 24.1586609,26 26.8118591,26 L26.8118591,26 Z M34,36.5 C32.8954305,36.5 32,37.3954305 32,38.5 C32,39.6045695 32.8954305,40.5 34,40.5 C35.1045695,40.5 36,39.6045695 36,38.5 C36,37.3954305 35.1045695,36.5 34,36.5 Z M40,36.5 C38.8954305,36.5 38,37.3954305 38,38.5 C38,39.6045695 38.8954305,40.5 40,40.5 C41.1045695,40.5 42,39.6045695 42,38.5 C42,37.3954305 41.1045695,36.5 40,36.5 Z M46,36.5 C44.8954305,36.5 44,37.3954305 44,38.5 C44,39.6045695 44.8954305,40.5 46,40.5 C47.1045695,40.5 48,39.6045695 48,38.5 C48,37.3954305 47.1045695,36.5 46,36.5 Z" id="Discussions" fill="#FFFFFF" fill-rule="nonzero"></path>
                </g>
            </g>
        </g>
    </g>
</svg>