<?xml version="1.0" encoding="UTF-8"?>
<svg width="80px" height="80px" viewBox="0 0 80 80" version="1.1" xmlns="http://www.w3.org/2000/svg" xmlns:xlink="http://www.w3.org/1999/xlink">
    <!-- Generator: Sketch 61.1 (89650) - https://sketch.com -->
    <title>Journals - Tan</title>
    <desc>Created with Sketch.</desc>
    <g id="Blackboard-Icons-★" stroke="none" stroke-width="1" fill="none" fill-rule="evenodd">
        <g id="Icons---Fill" transform="translate(-1924.000000, -879.000000)">
            <g id="Journals-Icons" transform="translate(48.000000, 879.000000)">
                <g id="Journals---Tan" transform="translate(1876.000000, 0.000000)">
                    <circle id="Oval" fill="#A39C99" cx="40" cy="40" r="40"></circle>
                    <path d="M57.4166388,29.375 C58.151832,29.375 58.75,29.9672682 58.75,30.6952102 L58.75,30.6952102 L58.75,51.6799179 C58.75,52.0835847 58.5672996,52.4596694 58.2488288,52.7112623 C57.9292287,52.9634763 57.5170236,53.0564104 57.1181194,52.9664582 C53.9233729,52.245598 48.3176343,51.4075764 43,52.6967258 C46.0746612,49.8153974 50.4160532,49.3056268 53.0490212,49.2994147 C54.9242095,49.2948177 56.4496821,47.7831484 56.4496821,45.9293128 L56.4496821,45.9293128 L56.4496821,29.375 Z M24.3003362,29.375 L24.3003362,45.9295128 C24.3003362,47.7833708 25.8259465,49.2950583 27.7010242,49.2995311 C30.3340132,49.3057433 34.6754398,49.8153959 37.75,52.6966348 C32.4325743,51.4074698 26.8266655,52.2453773 23.6318935,52.9663704 C23.2323588,53.0565722 22.8205269,52.9632643 22.5011751,52.7111714 C22.1827018,52.4595755 22,52.0836105 22,51.6798146 L22,51.6798146 L22,30.6952262 C22,29.9672754 22.5982982,29.375 23.3333718,29.375 L23.3333718,29.375 L24.3003362,29.375 Z M27.6946342,25 C30.7816244,25.0070566 36.396326,25.7056648 39.3180974,30.3036792 C39.4370002,30.4910454 39.5,30.7174664 39.5,30.9584874 L39.5,30.9584874 L39.5,51.25 C35.9401377,47.6096214 30.7798813,46.9823097 27.6998634,46.9751314 C26.9692649,46.9733064 26.375,46.3934446 26.375,45.6824265 L26.375,45.6824265 L26.375,26.2930699 C26.375,25.9460775 26.5133256,25.6201333 26.7644533,25.3753407 C27.0128419,25.1332246 27.3417855,25 27.6915215,25 L27.6915215,25 Z M53.0585905,25 C53.4079563,25 53.7371521,25.1332246 53.985543,25.3753407 C54.236673,25.6201333 54.375,25.9460775 54.375,26.2930699 L54.375,26.2930699 L54.375,45.6825482 C54.375,46.3934446 53.7807294,46.9733064 53.0502485,46.9751314 C49.9702014,46.9823097 44.809896,47.6096214 41.25,51.25 L41.25,51.25 L41.25,30.9586091 C41.25,30.7175881 41.3128759,30.491167 41.4317798,30.3038009 C44.3537034,25.7057865 49.9684583,25.0071783 53.0553533,25 L53.0553533,25 Z" id="Combined-Shape" fill="#FFFFFF" fill-rule="nonzero"></path>
                </g>
            </g>
        </g>
    </g>
</svg>