<?xml version="1.0" encoding="UTF-8"?>
<svg width="80px" height="80px" viewBox="0 0 80 80" version="1.1" xmlns="http://www.w3.org/2000/svg" xmlns:xlink="http://www.w3.org/1999/xlink">
    <!-- Generator: Sketch 61.1 (89650) - https://sketch.com -->
    <title>Info - Bright Blue</title>
    <desc>Created with Sketch.</desc>
    <g id="Blackboard-Icons-★" stroke="none" stroke-width="1" fill="none" fill-rule="evenodd">
        <g id="Icons---Fill" transform="translate(-484.000000, -519.000000)">
            <g id="Program-Info-Icons" transform="translate(48.000000, 519.000000)">
                <g id="Info---Bright-Blue" transform="translate(436.000000, 0.000000)">
                    <circle id="Oval" fill="#1665B0" cx="40" cy="40" r="40"></circle>
                    <path d="M39.9993228,24 C31.1639365,24 24,31.1639365 24,39.9993228 C24,48.834709 31.1639365,56 39.9993228,56 C48.834709,56 56,48.834709 56,39.9993228 C56,31.1639365 48.834709,24 39.9993228,24 Z M43.3300317,48.7967831 C42.5064974,49.1218624 41.8509206,49.368381 41.3592381,49.5390476 C40.8689101,49.7097143 40.2986667,49.7950476 39.6498624,49.7950476 C38.6529524,49.7950476 37.8768254,49.5512381 37.3241905,49.0649735 C36.7715556,48.578709 36.4965926,47.9624127 36.4965926,47.2133757 C36.4965926,46.9221587 36.5169101,46.6241693 36.557545,46.3207619 C36.5995344,46.0173545 36.6659048,45.6760212 36.7566561,45.2926984 L37.7874286,41.6518095 C37.8781799,41.3023492 37.9567407,40.9704974 38.0190476,40.661672 C38.0813545,40.3501376 38.1111534,40.0643386 38.1111534,39.8042751 C38.1111534,39.341037 38.0149841,39.0159577 37.824,38.8331005 C37.6303069,38.6502434 37.2659471,38.5608466 36.7227937,38.5608466 C36.4573122,38.5608466 36.1837037,38.600127 35.9033228,38.6827513 C35.6256508,38.7680847 35.3845503,38.845291 35.1867937,38.9211429 L35.4590476,37.799619 C36.1335873,37.5246561 36.7796825,37.2889735 37.3959788,37.0939259 C38.0122751,36.8961693 38.594709,36.7986455 39.1432804,36.7986455 C40.133418,36.7986455 40.8973545,37.039746 41.4350899,37.5165291 C41.9701164,37.9946667 42.2396614,38.616381 42.2396614,39.3803175 C42.2396614,39.5387937 42.2206984,39.8178201 42.184127,40.2160423 C42.1475556,40.615619 42.0784762,40.9799788 41.9782434,41.3145397 L40.9528889,44.9445926 C40.8689101,45.2358095 40.7944127,45.5690159 40.7266878,45.9415026 C40.6603175,46.3139894 40.6278095,46.5984339 40.6278095,46.789418 C40.6278095,47.271619 40.7348148,47.6007619 40.9515344,47.7754921 C41.165545,47.9502222 41.5407407,48.0382646 42.0717037,48.0382646 C42.3222857,48.0382646 42.6026667,47.9935661 42.919619,47.9068783 C43.2338624,47.8201905 43.461418,47.7429841 43.6049947,47.6766138 L43.3300317,48.7967831 Z M43.1485291,34.0625608 C42.6703915,34.506836 42.0947302,34.7289735 41.421545,34.7289735 C40.7497143,34.7289735 40.1699894,34.506836 39.6877884,34.0625608 C39.2082963,33.6182857 38.9658413,33.0778413 38.9658413,32.4466455 C38.9658413,31.8168042 39.2096508,31.2750053 39.6877884,30.8266667 C40.1699894,30.3769735 40.7497143,30.1534815 41.421545,30.1534815 C42.0947302,30.1534815 42.671746,30.3769735 43.1485291,30.8266667 C43.6266667,31.2750053 43.8664127,31.8168042 43.8664127,32.4466455 C43.8664127,33.0791958 43.6266667,33.6182857 43.1485291,34.0625608 Z" id="Info" fill="#FFFFFF" fill-rule="nonzero"></path>
                </g>
            </g>
        </g>
    </g>
</svg>