<?xml version="1.0" encoding="UTF-8"?>
<svg width="80px" height="80px" viewBox="0 0 80 80" version="1.1" xmlns="http://www.w3.org/2000/svg" xmlns:xlink="http://www.w3.org/1999/xlink">
    <!-- Generator: Sketch 61.1 (89650) - https://sketch.com -->
    <title>Blogs - Bright Green</title>
    <desc>Created with Sketch.</desc>
    <g id="Blackboard-Icons-★" stroke="none" stroke-width="1" fill="none" fill-rule="evenodd">
        <g id="Icons---Fill" transform="translate(-724.000000, -999.000000)">
            <g id="Blogs-Icons" transform="translate(48.000000, 999.000000)">
                <g id="Blogs---Bright-Green" transform="translate(676.000000, 0.000000)">
                    <circle id="Oval" fill="#00785C" cx="40" cy="40" r="40"></circle>
                    <g id="Blogs" transform="translate(22.000000, 26.000000)" fill="#FFFFFF" fill-rule="nonzero">
                        <path d="M29.5720564,-1.13686838e-13 L4.71365791,-1.13686838e-13 C2.11460657,-1.13686838e-13 0,2.11774781 0,4.7215946 L0,19.9600303 C0,22.5580078 2.10539898,24.6724018 4.69691684,24.6816249 L4.69691684,31.5966387 L14.6178851,24.6816249 L29.5720564,24.6816249 C32.1711077,24.6816249 34.2857143,22.5634578 34.2857143,19.9600303 L34.2857143,4.7215946 C34.2857143,2.11774781 32.1711077,-1.13686838e-13 29.5720564,-1.13686838e-13 Z M32.2767857,19.9600303 C32.2767857,21.4537521 31.0634765,22.6693138 29.5720564,22.6693138 L13.9875837,22.6693138 L6.70584541,27.7449494 L6.70584541,22.6693138 L4.71365791,22.6693138 C3.22223775,22.6693138 2.00892857,21.4537521 2.00892857,19.9600303 L2.00892857,4.7215946 C2.00892857,3.22745358 3.22223775,2.01231113 4.71365791,2.01231113 L29.5720564,2.01231113 C31.0634765,2.01231113 32.2767857,3.22745358 32.2767857,4.7215946 L32.2767857,19.9600303 Z M9.54325997,8 L25.0948953,8 C25.4737371,8 25.7810124,8.31598846 25.7810124,8.70557285 C25.7810124,9.09515724 25.4737371,9.4111457 25.0948953,9.4111457 L9.54325997,9.4111457 C9.1644937,9.4111457 8.85714286,9.09515724 8.85714286,8.70557285 C8.85714286,8.31606617 9.1644937,8 9.54325997,8 Z M25.7810124,12.3041746 C25.7810124,12.6936813 25.4737371,13.0097474 25.0948953,13.0097474 L9.54325997,13.0097474 C9.1644937,13.0097474 8.85714286,12.693759 8.85714286,12.3041746 C8.85714286,11.9145902 9.1644937,11.5986017 9.54325997,11.5986017 L25.0948953,11.5986017 C25.4737371,11.5986017 25.7810124,11.9146679 25.7810124,12.3041746 Z M25.7810124,15.7475021 C25.7810124,16.1370865 25.4737371,16.453075 25.0948953,16.453075 L9.54325997,16.453075 C9.1644937,16.453075 8.85714286,16.1370865 8.85714286,15.7475021 C8.85714286,15.3579177 9.1644937,15.0419293 9.54325997,15.0419293 L25.0948953,15.0419293 C25.4737371,15.0419293 25.7810124,15.3579177 25.7810124,15.7475021 Z" id="Discussions"></path>
                        <path d="M34.7148908,19.4498825 L33.0016011,22.475888 L31.2883113,19.4498825 L34.7148908,19.4498825 Z M35.1457035,4.86415147 L35.1458814,18.1618913 L30.8573208,18.1618913 L30.8571429,4.86415147 L35.1457035,4.86415147 Z M33.5359369,1 C34.4247771,1.00088936 35.144992,1.72110433 35.1458814,2.60994454 L35.1458814,2.60994454 L35.1458815,3.57580451 L30.8573208,3.57580451 L30.8573207,2.60994454 C30.858388,1.72128215 31.5786029,1.00106723 32.4672653,1 L32.4672653,1 Z" id="Combined-Shape" transform="translate(33.001512, 11.737944) rotate(35.000000) translate(-33.001512, -11.737944) "></path>
                    </g>
                </g>
            </g>
        </g>
    </g>
</svg>