<?xml version="1.0" encoding="UTF-8"?>
<svg width="80px" height="80px" viewBox="0 0 80 80" version="1.1" xmlns="http://www.w3.org/2000/svg" xmlns:xlink="http://www.w3.org/1999/xlink">
    <!-- Generator: Sketch 61.1 (89650) - https://sketch.com -->
    <title>Portfolio - Orange</title>
    <desc>Created with Sketch.</desc>
    <g id="Blackboard-Icons-★" stroke="none" stroke-width="1" fill="none" fill-rule="evenodd">
        <g id="Icons---Stroke" transform="translate(-1204.000000, -1119.000000)">
            <g id="Portfolio-Icons" transform="translate(48.000000, 1119.000000)">
                <g id="Portfolio---Orange" transform="translate(1156.000000, 0.000000)">
                    <circle id="Oval" stroke="#C13414" stroke-width="4" cx="40" cy="40" r="38"></circle>
                    <path d="M52.1645273,23 C53.2130881,23 54.0750467,23.8142968 54.1512401,24.8437272 L54.1567148,24.9921875 L54.1564648,35.778 L56.1875931,32.8773031 L59.7005763,35.3371205 L54.1564648,43.254 L54.1567148,55.0078125 C54.1567148,56.0563732 53.3424181,56.9183318 52.3129876,56.9945253 L52.1645273,57 L27.9926523,57 C26.9440916,57 26.082133,56.1857032 26.0059396,55.1562728 L26.0004648,55.0078125 L26.0004648,24.9921875 C26.0004648,23.9436268 26.8147616,23.0816682 27.8441921,23.0054747 L27.9926523,23 L52.1645273,23 Z M52.1645273,24.328125 L27.9926523,24.328125 C27.6597759,24.328125 27.3833174,24.5743221 27.3358032,24.8941896 L27.3285898,24.9921875 L27.3285898,55.0078125 C27.3285898,55.3406889 27.5747869,55.6171475 27.8946545,55.6646616 L27.9926523,55.671875 L52.1645273,55.671875 C52.4974038,55.671875 52.7738623,55.4256779 52.8213765,55.1058104 L52.8285898,55.0078125 L52.8284648,45.15 L52.0734518,46.2300932 L48.5604686,43.7702759 L52.8284648,37.674 L52.8285898,24.9921875 L52.8213765,24.8941896 C52.7738623,24.5743221 52.4974038,24.328125 52.1645273,24.328125 Z M43.6645273,52.0859375 C44.0312227,52.0859375 44.3285898,52.3832383 44.3285898,52.75 C44.3285898,53.0834197 44.0828318,53.3594338 43.7626449,53.4068626 L43.6645273,53.4140625 L40.0785898,53.4140625 C39.7118945,53.4140625 39.4145273,53.1167617 39.4145273,52.75 C39.4145273,52.4165803 39.6602853,52.1405662 39.9804722,52.0931374 L40.0785898,52.0859375 L43.6645273,52.0859375 Z M43.6645273,48.3671875 C44.0312227,48.3671875 44.3285898,48.6644883 44.3285898,49.03125 C44.3285898,49.3646697 44.0828318,49.6406838 43.7626449,49.6881126 L43.6645273,49.6953125 L34.2348398,49.6953125 C33.8681445,49.6953125 33.5707773,49.3980117 33.5707773,49.03125 C33.5707773,48.6978303 33.8165353,48.4218162 34.1367222,48.3743874 L34.2348398,48.3671875 L43.6645273,48.3671875 Z M31.3979648,48.3671875 C31.5732773,48.3671875 31.7439414,48.4382422 31.8680547,48.5617578 C31.9916367,48.6852734 32.0626914,48.8566016 32.0626914,49.03125 C32.0626914,49.2058984 31.9915703,49.3772266 31.8680547,49.5007422 C31.7446055,49.6242578 31.5732773,49.6953125 31.3979648,49.6953125 C31.22325,49.6953125 31.0519219,49.6242578 30.9284727,49.5007422 C30.8048906,49.3772266 30.7339023,49.2058984 30.7339023,49.03125 C30.7339023,48.8566016 30.804957,48.6852734 30.9284727,48.5617578 C31.0526523,48.4382422 31.22325,48.3671875 31.3979648,48.3671875 Z M48.174754,45.0725425 L50.9816436,47.0379478 L47.8425533,48.5340038 L48.174754,45.0725425 Z M43.6645273,44.6484375 C44.0312227,44.6484375 44.3285898,44.9457383 44.3285898,45.3125 C44.3285898,45.6459197 44.0828318,45.9219338 43.7626449,45.9693626 L43.6645273,45.9765625 L34.2348398,45.9765625 C33.8681445,45.9765625 33.5707773,45.6792617 33.5707773,45.3125 C33.5707773,44.9790803 33.8165353,44.7030662 34.1367222,44.6556374 L34.2348398,44.6484375 L43.6645273,44.6484375 Z M31.3979648,44.6484375 C31.5732773,44.6484375 31.7439414,44.7194922 31.8680547,44.8430078 C31.9916367,44.9665234 32.0626914,45.1378516 32.0626914,45.3125 C32.0626914,45.4871484 31.9915703,45.6584766 31.8680547,45.7819922 C31.7439414,45.9055078 31.5732773,45.9765625 31.3979648,45.9765625 C31.22325,45.9765625 31.0526523,45.9055078 30.9284727,45.7819922 C30.8048906,45.6584766 30.7339023,45.4871484 30.7339023,45.3125 C30.7339023,45.1378516 30.804957,44.9665234 30.9284727,44.8430078 C31.0526523,44.7194922 31.22325,44.6484375 31.3979648,44.6484375 Z M31.3979648,40.9296875 C31.5732773,40.9296875 31.7446055,41.0007422 31.8680547,41.1242578 C31.9916367,41.2477734 32.0626914,41.4191016 32.0626914,41.59375 C32.0626914,41.7683984 31.9915703,41.9397266 31.8680547,42.0632422 C31.7439414,42.1867578 31.5732773,42.2578125 31.3979648,42.2578125 C31.22325,42.2578125 31.0526523,42.1867578 30.9284727,42.0632422 C30.8048906,41.9397266 30.7339023,41.7683984 30.7339023,41.59375 C30.7339023,41.4191016 30.804957,41.2477734 30.9284727,41.1242578 C31.0519219,41.0007422 31.22325,40.9296875 31.3979648,40.9296875 Z M43.6645273,40.9296875 C44.0312227,40.9296875 44.3285898,41.2269883 44.3285898,41.59375 C44.3285898,41.9271697 44.0828318,42.2031838 43.7626449,42.2506126 L43.6645273,42.2578125 L34.2348398,42.2578125 C33.8681445,42.2578125 33.5707773,41.9605117 33.5707773,41.59375 C33.5707773,41.2603303 33.8165353,40.9843162 34.1367222,40.9368874 L34.2348398,40.9296875 L43.6645273,40.9296875 Z M40.0785898,26.5859375 C43.4473125,26.5859375 46.1879648,29.3265898 46.1879648,32.6953125 C46.1879648,34.4429258 45.4501914,36.0212695 44.2698867,37.135832 C44.2477734,37.1594063 44.2242656,37.1818516 44.1985664,37.2022383 C43.1114297,38.1968711 41.6646367,38.8046211 40.0785234,38.8046211 C38.4924102,38.8046211 37.0456172,38.1969375 35.9584805,37.2022383 C35.9327812,37.1818516 35.9092734,37.1594727 35.8871602,37.135832 C34.7069883,36.0212695 33.9692148,34.4429258 33.9692148,32.6953125 C33.9692148,29.3265898 36.7098672,26.5859375 40.0785898,26.5859375 Z M40.0785898,34.8203125 C38.8632891,34.8203125 37.7741602,35.4675742 37.1905156,36.5025156 C37.9935,37.1131875 38.9942422,37.4765625 40.0785898,37.4765625 C41.1629375,37.4765625 42.1636133,37.1131875 42.9666641,36.5025156 C42.3830195,35.4675742 41.2938906,34.8203125 40.0785898,34.8203125 Z M40.0785898,27.9140625 C37.4421953,27.9140625 35.2973398,30.058918 35.2973398,32.6953125 C35.2973398,33.7556211 35.6447109,34.7359766 36.2310117,35.5297305 C36.7207578,34.8033789 37.3994961,34.2384609 38.1875391,33.8896953 C37.9138623,33.5360073 37.7366334,33.1041239 37.6966023,32.633594 L37.6879648,32.4296875 L37.6879648,31.9980469 C37.6879648,30.6798164 38.7603594,29.6074219 40.0785898,29.6074219 C41.341894,29.6074219 42.3794218,30.592312 42.4636892,31.8346083 L42.4692148,31.9980469 L42.4692148,32.4296875 C42.4692148,32.9791328 42.2824141,33.4854805 41.9696406,33.8896953 C42.7576836,34.2384609 43.4364219,34.8033789 43.926168,35.5297305 C44.5124687,34.7359766 44.8598398,33.7556211 44.8598398,32.6953125 C44.8598398,30.058918 42.7149844,27.9140625 40.0785898,27.9140625 Z M59.5916513,30.5527988 L59.7229144,30.6355038 L60.5983189,31.2484686 C61.2831049,31.7289828 61.4800578,32.6457756 61.0764282,33.3594139 L60.993682,33.4906843 L60.4396875,34.2818705 L56.9267043,31.8220531 L57.4806988,31.0308669 C57.9612541,30.346314 58.8780492,30.1493749 59.5916513,30.5527988 Z M40.0785898,30.9355469 C39.5318096,30.9355469 39.0801303,31.3507742 39.0223365,31.8824442 L39.0160898,31.9980469 L39.0160898,32.4296875 C39.0160898,33.0155234 39.4927539,33.4921875 40.0785898,33.4921875 C40.6253701,33.4921875 41.0770494,33.0769601 41.1348432,32.5452902 L41.1410898,32.4296875 L41.1410898,31.9980469 C41.1410898,31.4122109 40.6644258,30.9355469 40.0785898,30.9355469 Z" id="Portfolio" fill="#000000" fill-rule="nonzero"></path>
                </g>
            </g>
        </g>
    </g>
</svg>