<?xml version="1.0" encoding="UTF-8"?>
<svg width="80px" height="80px" viewBox="0 0 80 80" version="1.1" xmlns="http://www.w3.org/2000/svg" xmlns:xlink="http://www.w3.org/1999/xlink">
    <!-- Generator: Sketch 61.1 (89650) - https://sketch.com -->
    <title>Portfolio - Tan</title>
    <desc>Created with Sketch.</desc>
    <g id="Blackboard-Icons-★" stroke="none" stroke-width="1" fill="none" fill-rule="evenodd">
        <g id="Icons---Stroke" transform="translate(-1924.000000, -1119.000000)">
            <g id="Portfolio-Icons" transform="translate(48.000000, 1119.000000)">
                <g id="Portfolio---Tan" transform="translate(1876.000000, 0.000000)">
                    <circle id="Oval" stroke="#A39C99" stroke-width="4" cx="40" cy="40" r="38"></circle>
                    <path d="M51.1645273,23 C52.2130881,23 53.0750467,23.8142968 53.1512401,24.8437272 L53.1567148,24.9921875 L53.1564648,35.778 L55.1875931,32.8773031 L58.7005763,35.3371205 L53.1564648,43.254 L53.1567148,55.0078125 C53.1567148,56.0563732 52.3424181,56.9183318 51.3129876,56.9945253 L51.1645273,57 L26.9926523,57 C25.9440916,57 25.082133,56.1857032 25.0059396,55.1562728 L25.0004648,55.0078125 L25.0004648,24.9921875 C25.0004648,23.9436268 25.8147616,23.0816682 26.8441921,23.0054747 L26.9926523,23 L51.1645273,23 Z M51.1645273,24.328125 L26.9926523,24.328125 C26.6597759,24.328125 26.3833174,24.5743221 26.3358032,24.8941896 L26.3285898,24.9921875 L26.3285898,55.0078125 C26.3285898,55.3406889 26.5747869,55.6171475 26.8946545,55.6646616 L26.9926523,55.671875 L51.1645273,55.671875 C51.4974038,55.671875 51.7738623,55.4256779 51.8213765,55.1058104 L51.8285898,55.0078125 L51.8284648,45.15 L51.0734518,46.2300932 L47.5604686,43.7702759 L51.8284648,37.674 L51.8285898,24.9921875 L51.8213765,24.8941896 C51.7738623,24.5743221 51.4974038,24.328125 51.1645273,24.328125 Z M42.6645273,52.0859375 C43.0312227,52.0859375 43.3285898,52.3832383 43.3285898,52.75 C43.3285898,53.0834197 43.0828318,53.3594338 42.7626449,53.4068626 L42.6645273,53.4140625 L39.0785898,53.4140625 C38.7118945,53.4140625 38.4145273,53.1167617 38.4145273,52.75 C38.4145273,52.4165803 38.6602853,52.1405662 38.9804722,52.0931374 L39.0785898,52.0859375 L42.6645273,52.0859375 Z M42.6645273,48.3671875 C43.0312227,48.3671875 43.3285898,48.6644883 43.3285898,49.03125 C43.3285898,49.3646697 43.0828318,49.6406838 42.7626449,49.6881126 L42.6645273,49.6953125 L33.2348398,49.6953125 C32.8681445,49.6953125 32.5707773,49.3980117 32.5707773,49.03125 C32.5707773,48.6978303 32.8165353,48.4218162 33.1367222,48.3743874 L33.2348398,48.3671875 L42.6645273,48.3671875 Z M30.3979648,48.3671875 C30.5732773,48.3671875 30.7439414,48.4382422 30.8680547,48.5617578 C30.9916367,48.6852734 31.0626914,48.8566016 31.0626914,49.03125 C31.0626914,49.2058984 30.9915703,49.3772266 30.8680547,49.5007422 C30.7446055,49.6242578 30.5732773,49.6953125 30.3979648,49.6953125 C30.22325,49.6953125 30.0519219,49.6242578 29.9284727,49.5007422 C29.8048906,49.3772266 29.7339023,49.2058984 29.7339023,49.03125 C29.7339023,48.8566016 29.804957,48.6852734 29.9284727,48.5617578 C30.0526523,48.4382422 30.22325,48.3671875 30.3979648,48.3671875 Z M47.174754,45.0725425 L49.9816436,47.0379478 L46.8425533,48.5340038 L47.174754,45.0725425 Z M42.6645273,44.6484375 C43.0312227,44.6484375 43.3285898,44.9457383 43.3285898,45.3125 C43.3285898,45.6459197 43.0828318,45.9219338 42.7626449,45.9693626 L42.6645273,45.9765625 L33.2348398,45.9765625 C32.8681445,45.9765625 32.5707773,45.6792617 32.5707773,45.3125 C32.5707773,44.9790803 32.8165353,44.7030662 33.1367222,44.6556374 L33.2348398,44.6484375 L42.6645273,44.6484375 Z M30.3979648,44.6484375 C30.5732773,44.6484375 30.7439414,44.7194922 30.8680547,44.8430078 C30.9916367,44.9665234 31.0626914,45.1378516 31.0626914,45.3125 C31.0626914,45.4871484 30.9915703,45.6584766 30.8680547,45.7819922 C30.7439414,45.9055078 30.5732773,45.9765625 30.3979648,45.9765625 C30.22325,45.9765625 30.0526523,45.9055078 29.9284727,45.7819922 C29.8048906,45.6584766 29.7339023,45.4871484 29.7339023,45.3125 C29.7339023,45.1378516 29.804957,44.9665234 29.9284727,44.8430078 C30.0526523,44.7194922 30.22325,44.6484375 30.3979648,44.6484375 Z M30.3979648,40.9296875 C30.5732773,40.9296875 30.7446055,41.0007422 30.8680547,41.1242578 C30.9916367,41.2477734 31.0626914,41.4191016 31.0626914,41.59375 C31.0626914,41.7683984 30.9915703,41.9397266 30.8680547,42.0632422 C30.7439414,42.1867578 30.5732773,42.2578125 30.3979648,42.2578125 C30.22325,42.2578125 30.0526523,42.1867578 29.9284727,42.0632422 C29.8048906,41.9397266 29.7339023,41.7683984 29.7339023,41.59375 C29.7339023,41.4191016 29.804957,41.2477734 29.9284727,41.1242578 C30.0519219,41.0007422 30.22325,40.9296875 30.3979648,40.9296875 Z M42.6645273,40.9296875 C43.0312227,40.9296875 43.3285898,41.2269883 43.3285898,41.59375 C43.3285898,41.9271697 43.0828318,42.2031838 42.7626449,42.2506126 L42.6645273,42.2578125 L33.2348398,42.2578125 C32.8681445,42.2578125 32.5707773,41.9605117 32.5707773,41.59375 C32.5707773,41.2603303 32.8165353,40.9843162 33.1367222,40.9368874 L33.2348398,40.9296875 L42.6645273,40.9296875 Z M39.0785898,26.5859375 C42.4473125,26.5859375 45.1879648,29.3265898 45.1879648,32.6953125 C45.1879648,34.4429258 44.4501914,36.0212695 43.2698867,37.135832 C43.2477734,37.1594063 43.2242656,37.1818516 43.1985664,37.2022383 C42.1114297,38.1968711 40.6646367,38.8046211 39.0785234,38.8046211 C37.4924102,38.8046211 36.0456172,38.1969375 34.9584805,37.2022383 C34.9327813,37.1818516 34.9092734,37.1594727 34.8871602,37.135832 C33.7069883,36.0212695 32.9692148,34.4429258 32.9692148,32.6953125 C32.9692148,29.3265898 35.7098672,26.5859375 39.0785898,26.5859375 Z M39.0785898,34.8203125 C37.8632891,34.8203125 36.7741602,35.4675742 36.1905156,36.5025156 C36.9935,37.1131875 37.9942422,37.4765625 39.0785898,37.4765625 C40.1629375,37.4765625 41.1636133,37.1131875 41.9666641,36.5025156 C41.3830195,35.4675742 40.2938906,34.8203125 39.0785898,34.8203125 Z M39.0785898,27.9140625 C36.4421953,27.9140625 34.2973398,30.058918 34.2973398,32.6953125 C34.2973398,33.7556211 34.6447109,34.7359766 35.2310117,35.5297305 C35.7207578,34.8033789 36.3994961,34.2384609 37.1875391,33.8896953 C36.9138623,33.5360073 36.7366334,33.1041239 36.6966023,32.633594 L36.6879648,32.4296875 L36.6879648,31.9980469 C36.6879648,30.6798164 37.7603594,29.6074219 39.0785898,29.6074219 C40.341894,29.6074219 41.3794218,30.592312 41.4636892,31.8346083 L41.4692148,31.9980469 L41.4692148,32.4296875 C41.4692148,32.9791328 41.2824141,33.4854805 40.9696406,33.8896953 C41.7576836,34.2384609 42.4364219,34.8033789 42.926168,35.5297305 C43.5124688,34.7359766 43.8598398,33.7556211 43.8598398,32.6953125 C43.8598398,30.058918 41.7149844,27.9140625 39.0785898,27.9140625 Z M58.5916513,30.5527988 L58.7229144,30.6355038 L59.5983189,31.2484686 C60.2831049,31.7289828 60.4800578,32.6457756 60.0764282,33.3594139 L59.993682,33.4906843 L59.4396875,34.2818705 L55.9267043,31.8220531 L56.4806988,31.0308669 C56.9612541,30.346314 57.8780492,30.1493749 58.5916513,30.5527988 Z M39.0785898,30.9355469 C38.5318096,30.9355469 38.0801303,31.3507742 38.0223365,31.8824442 L38.0160898,31.9980469 L38.0160898,32.4296875 C38.0160898,33.0155234 38.4927539,33.4921875 39.0785898,33.4921875 C39.6253701,33.4921875 40.0770494,33.0769601 40.1348432,32.5452902 L40.1410898,32.4296875 L40.1410898,31.9980469 C40.1410898,31.4122109 39.6644258,30.9355469 39.0785898,30.9355469 Z" id="Portfolio" fill="#000000" fill-rule="nonzero"></path>
                </g>
            </g>
        </g>
    </g>
</svg>