<?xml version="1.0" encoding="UTF-8"?>
<svg width="80px" height="80px" viewBox="0 0 80 80" version="1.1" xmlns="http://www.w3.org/2000/svg" xmlns:xlink="http://www.w3.org/1999/xlink">
    <!-- Generator: Sketch 61.1 (89650) - https://sketch.com -->
    <title>Glance - Black</title>
    <desc>Created with Sketch.</desc>
    <g id="Blackboard-Icons-★" stroke="none" stroke-width="1" fill="none" fill-rule="evenodd">
        <g id="Icons---Stroke" transform="translate(-1804.000000, -1479.000000)">
            <g id="Module-at-a-Glance-Icons" transform="translate(48.000000, 1479.000000)">
                <g id="Glance---Black" transform="translate(1756.000000, 0.000000)">
                    <circle id="Oval" stroke="#000000" stroke-width="4" cx="40" cy="40" r="38"></circle>
                    <path d="M39.7759094,30 C33.365477,30 27.552162,33.5072066 23.2625257,39.2038435 C22.9124914,39.6705559 22.9124914,40.3225806 23.2625257,40.7892931 C27.552162,46.4927934 33.365477,50 39.7759094,50 C46.1863418,50 51.9996568,46.4927934 56.2892931,40.7961565 C56.6393274,40.3294441 56.6393274,39.6774194 56.2892931,39.2107069 C51.9996568,33.5072066 46.1863418,30 39.7759094,30 Z M40.2357584,47.0418668 C35.9804393,47.3095402 32.4663693,43.8023336 32.7340426,39.540151 C32.9536719,36.026081 35.8019904,33.1777625 39.3160604,32.9581332 C43.5713795,32.6904598 47.0854496,36.1976664 46.8177763,40.459849 C46.5912835,43.9670556 43.742965,46.8153741 40.2357584,47.0418668 Z M40.0229925,43.7886067 C37.7306108,43.9327385 35.8363075,42.0452986 35.9873027,39.752917 C36.1039808,37.8586136 37.6413864,36.3280714 39.5356898,36.2045299 C41.8280714,36.0603981 43.7223747,37.947838 43.5713795,40.2402196 C43.447838,42.1413864 41.9104324,43.6719286 40.0229925,43.7886067 Z" id="Glance" fill="#000000" fill-rule="nonzero"></path>
                </g>
            </g>
        </g>
    </g>
</svg>