<?xml version="1.0" encoding="UTF-8"?>
<svg width="80px" height="80px" viewBox="0 0 80 80" version="1.1" xmlns="http://www.w3.org/2000/svg" xmlns:xlink="http://www.w3.org/1999/xlink">
    <!-- Generator: Sketch 61.1 (89650) - https://sketch.com -->
    <title>Folder - Tan</title>
    <desc>Created with Sketch.</desc>
    <g id="Blackboard-Icons-★" stroke="none" stroke-width="1" fill="none" fill-rule="evenodd">
        <g id="Icons---Stroke" transform="translate(-1924.000000, -1959.000000)">
            <g id="Folder-Icons" transform="translate(48.000000, 1959.000000)">
                <g id="Folder---Tan" transform="translate(1876.000000, 0.000000)">
                    <circle id="Oval" stroke="#A39C99" stroke-width="4" cx="40" cy="40" r="38"></circle>
                    <path d="M36.2825503,25 L39.9334397,28.3127626 L52.6248492,28.3127626 C54.770153,28.3127626 56.5155113,30.0575608 56.5155113,32.2029097 L56.5155113,33.2281172 L60,33.2287009 L56.4479779,50.279439 C56.3424935,52.289585 54.706512,53.8980131 52.68343,53.9585139 C52.6637733,53.9594866 52.6450897,53.9645446 52.6248492,53.9645446 L50.8283056,53.9655172 L28.8906621,53.9645446 C26.7453583,53.9645446 25,52.2197464 25,50.0749811 L25,28.8895635 C25,26.7447982 26.7455529,25 28.8918298,25 L36.2825503,25 Z M34.8693677,27.816092 L28.6753733,27.816092 C28.2014607,27.816092 27.816092,28.2033938 27.816092,28.6790994 L27.816092,49.884119 C27.816092,50.3598246 28.2014607,50.7471264 28.6753733,50.7471264 L29.3281171,50.7471264 L32.7551674,33.0215924 L53.1609195,33.0215924 L53.1609195,31.995408 C53.1609195,31.5198971 52.7757444,31.1320111 52.3028006,31.1320111 L38.5039243,31.1320111 L34.8693677,27.816092 Z" id="Folder" fill="#000000" fill-rule="nonzero"></path>
                </g>
            </g>
        </g>
    </g>
</svg>