<?xml version="1.0" encoding="UTF-8"?>
<svg width="80px" height="80px" viewBox="0 0 80 80" version="1.1" xmlns="http://www.w3.org/2000/svg" xmlns:xlink="http://www.w3.org/1999/xlink">
    <!-- Generator: Sketch 61.1 (89650) - https://sketch.com -->
    <title>Folder - Orange</title>
    <desc>Created with Sketch.</desc>
    <g id="Blackboard-Icons-★" stroke="none" stroke-width="1" fill="none" fill-rule="evenodd">
        <g id="Icons---Stroke" transform="translate(-1204.000000, -1959.000000)">
            <g id="Folder-Icons" transform="translate(48.000000, 1959.000000)">
                <g id="Folder---Orange" transform="translate(1156.000000, 0.000000)">
                    <circle id="Oval" stroke="#C13414" stroke-width="4" cx="40" cy="40" r="38"></circle>
                    <path d="M35.2825503,25 L38.9334397,28.3127626 L51.6248492,28.3127626 C53.770153,28.3127626 55.5155113,30.0575608 55.5155113,32.2029097 L55.5155113,33.2281172 L59,33.2287009 L55.4479779,50.279439 C55.3424935,52.289585 53.706512,53.8980131 51.68343,53.9585139 C51.6637733,53.9594866 51.6450897,53.9645446 51.6248492,53.9645446 L49.8283056,53.9655172 L27.8906621,53.9645446 C25.7453583,53.9645446 24,52.2197464 24,50.0749811 L24,28.8895635 C24,26.7447982 25.7455529,25 27.8918298,25 L35.2825503,25 Z M33.8693677,27.816092 L27.6753733,27.816092 C27.2014607,27.816092 26.816092,28.2033938 26.816092,28.6790994 L26.816092,49.884119 C26.816092,50.3598246 27.2014607,50.7471264 27.6753733,50.7471264 L28.3281171,50.7471264 L31.7551674,33.0215924 L52.1609195,33.0215924 L52.1609195,31.995408 C52.1609195,31.5198971 51.7757444,31.1320111 51.3028006,31.1320111 L37.5039243,31.1320111 L33.8693677,27.816092 Z" id="Folder" fill="#000000" fill-rule="nonzero"></path>
                </g>
            </g>
        </g>
    </g>
</svg>