<?xml version="1.0" encoding="UTF-8"?>
<svg width="80px" height="80px" viewBox="0 0 80 80" version="1.1" xmlns="http://www.w3.org/2000/svg" xmlns:xlink="http://www.w3.org/1999/xlink">
    <!-- Generator: Sketch 61.1 (89650) - https://sketch.com -->
    <title>Folder - Red</title>
    <desc>Created with Sketch.</desc>
    <g id="Blackboard-Icons-★" stroke="none" stroke-width="1" fill="none" fill-rule="evenodd">
        <g id="Icons---Stroke" transform="translate(-1324.000000, -1959.000000)">
            <g id="Folder-Icons" transform="translate(48.000000, 1959.000000)">
                <g id="Folder---Red" transform="translate(1276.000000, 0.000000)">
                    <circle id="Oval" stroke="#C13414" stroke-width="4" cx="40" cy="40" r="38"></circle>
                    <path d="M34.2825503,25 L37.9334397,28.3127626 L50.6248492,28.3127626 C52.770153,28.3127626 54.5155113,30.0575608 54.5155113,32.2029097 L54.5155113,33.2281172 L58,33.2287009 L54.4479779,50.279439 C54.3424935,52.289585 52.706512,53.8980131 50.68343,53.9585139 C50.6637733,53.9594866 50.6450897,53.9645446 50.6248492,53.9645446 L48.8283056,53.9655172 L26.8906621,53.9645446 C24.7453583,53.9645446 23,52.2197464 23,50.0749811 L23,28.8895635 C23,26.7447982 24.7455529,25 26.8918298,25 L34.2825503,25 Z M32.8693677,27.816092 L26.6753733,27.816092 C26.2014607,27.816092 25.816092,28.2033938 25.816092,28.6790994 L25.816092,49.884119 C25.816092,50.3598246 26.2014607,50.7471264 26.6753733,50.7471264 L27.3281171,50.7471264 L30.7551674,33.0215924 L51.1609195,33.0215924 L51.1609195,31.995408 C51.1609195,31.5198971 50.7757444,31.1320111 50.3028006,31.1320111 L36.5039243,31.1320111 L32.8693677,27.816092 Z" id="Folder" fill="#000000" fill-rule="nonzero"></path>
                </g>
            </g>
        </g>
    </g>
</svg>