<?xml version="1.0" encoding="UTF-8"?>
<svg width="80px" height="80px" viewBox="0 0 80 80" version="1.1" xmlns="http://www.w3.org/2000/svg" xmlns:xlink="http://www.w3.org/1999/xlink">
    <!-- Generator: Sketch 61.1 (89650) - https://sketch.com -->
    <title>Resources - Tan</title>
    <desc>Created with Sketch.</desc>
    <g id="Blackboard-Icons-★" stroke="none" stroke-width="1" fill="none" fill-rule="evenodd">
        <g id="Icons---Fill" transform="translate(-1924.000000, -1359.000000)">
            <g id="Resources-Icons" transform="translate(48.000000, 1359.000000)">
                <g id="Resources---Tan" transform="translate(1876.000000, 0.000000)">
                    <circle id="Oval" fill="#A39C99" cx="40" cy="40" r="40"></circle>
                    <path d="M55.8715242,38.210974 C55.8209665,37.7615465 55.2969517,37.4238216 54.8438364,37.4238216 C53.378855,37.4238216 52.0788699,36.5636283 51.5336803,35.2333086 C50.9767138,33.8707509 51.3358513,32.2816952 52.427658,31.2801784 C52.7713309,30.9660074 52.8130855,30.4400892 52.5248476,30.0747658 C51.7750483,29.1226171 50.9228253,28.2625428 49.9923271,27.517145 C49.6279554,27.2247435 49.0933532,27.2654275 48.7773978,27.6152862 C47.8245353,28.6705725 46.1129517,29.0627807 44.7903643,28.5109294 C43.4140074,27.9319554 42.5460818,26.5372788 42.6310186,25.0401784 C42.658974,24.5699331 42.3153011,24.1610706 41.8464833,24.1064684 C40.6523717,23.9683569 39.4477918,23.9640743 38.2501115,24.0969517 C37.7866468,24.1481041 37.442974,24.5473309 37.4585576,25.0116283 C37.5106617,26.4939777 36.6322677,27.8642677 35.2695911,28.4224238 C33.9628253,28.9561933 32.2632565,28.567316 31.3122974,27.5214275 C30.9980074,27.1769219 30.4720892,27.1345725 30.1059331,27.4199554 C29.1478364,28.171658 28.276461,29.0324461 27.5197621,29.9767435 C27.2246245,30.3438513 27.2680446,30.8759554 27.6151673,31.1917918 C28.7277918,32.1993755 29.0870483,33.8022305 28.509026,35.1804907 C27.9571747,36.494513 26.5927138,37.3413829 25.0306617,37.3413829 C24.523777,37.3250855 24.1627361,37.6653086 24.1073011,38.1261561 C23.9666914,39.3271673 23.965026,40.5508996 24.1004015,41.7616654 C24.1506022,42.2129963 24.6905576,42.5477472 25.1486691,42.5477472 C26.5407286,42.5121784 27.8772342,43.3740372 28.4378885,44.7383792 C28.9967584,46.1009368 28.6375019,47.6890409 27.5440297,48.6913903 C27.2020223,49.0055613 27.1586022,49.5306468 27.4468401,49.8959703 C28.1896208,50.842052 29.0419628,51.7029591 29.9757918,52.4545428 C30.3420669,52.7496803 30.8750037,52.7080446 31.1925056,52.3581859 C32.1489368,51.3002825 33.8604015,50.9087881 35.1777546,51.46171 C36.5575613,52.0388996 37.425487,53.4334572 37.3405502,54.9313903 C37.3128327,55.4018736 37.658171,55.8114498 38.1250855,55.8652193 C38.7359405,55.9364758 39.3504833,55.9720446 39.9666914,55.9720446 C40.5516134,55.9720446 41.1366543,55.9399257 41.7215762,55.874855 C42.1851599,55.8237026 42.5285948,55.4244758 42.5130112,54.9593457 C42.4593606,53.477829 43.3393011,52.107539 44.7001933,51.5503346 C46.0157621,51.0129963 47.7081933,51.4062751 48.6592714,52.4510929 C48.9753457,52.7948848 49.4975762,52.8364015 49.8657546,52.5519703 C50.8220669,51.802052 51.691658,50.9419777 52.4519257,49.9950632 C52.7469442,49.6287881 52.7053086,49.0958513 52.3564015,48.7801338 C51.243777,47.7725502 50.8827361,46.1694572 51.4607584,44.7921487 C52.0041636,43.4956134 53.317948,42.6250706 54.7310632,42.6250706 L54.9287732,42.6301859 C55.3871227,42.6674201 55.8088327,42.3143494 55.8643866,41.8464833 C56.0052342,40.6444015 56.0068996,39.4217398 55.8715242,38.210974 Z M40.0113011,45.3520892 C37.0708699,45.3520892 34.6790781,42.9602974 34.6790781,40.0198662 C34.6790781,37.0795539 37.0708699,34.6876431 40.0113011,34.6876431 C42.9516134,34.6876431 45.3434052,37.0795539 45.3434052,40.0198662 C45.3434052,42.9602974 42.9516134,45.3520892 40.0113011,45.3520892 Z" id="Resources" fill="#FFFFFF" fill-rule="nonzero"></path>
                </g>
            </g>
        </g>
    </g>
</svg>