<?xml version="1.0" encoding="UTF-8"?>
<svg width="80px" height="80px" viewBox="0 0 80 80" version="1.1" xmlns="http://www.w3.org/2000/svg" xmlns:xlink="http://www.w3.org/1999/xlink">
    <!-- Generator: Sketch 61.1 (89650) - https://sketch.com -->
    <title>Community - Fuschia</title>
    <desc>Created with Sketch.</desc>
    <g id="Blackboard-Icons-★" stroke="none" stroke-width="1" fill="none" fill-rule="evenodd">
        <g id="Icons---Stroke" transform="translate(-1084.000000, -399.000000)">
            <g id="AAP/Hopkins-Community-Icons" transform="translate(48.000000, 399.000000)">
                <g id="Community---Fuschia" transform="translate(1036.000000, 0.000000)">
                    <circle id="Oval" stroke="#A93190" stroke-width="4" cx="40" cy="40" r="38"></circle>
                    <path d="M51.2392824,29.8328365 C51.9777105,29.8328365 52.7012209,29.6389058 53.3352249,29.2585035 L59.3545331,25.7006224 L59.3545331,24.0372944 L52.581879,27.9830367 C52.0672169,28.2813915 51.4854251,28.4380277 50.8961743,28.4305689 L41.9306124,28.3261447 C41.4830802,28.1620495 41.1250544,28.0576254 40.9907948,28.0054133 C38.1862596,27.3788682 35.9933518,27.6250109 34.5015778,28.0277899 C33.3827472,28.3261447 32.189328,28.2142616 31.1301685,27.7294351 L23,24 L23,38.9028225 L23.8428523,39.3652725 C25.0884836,40.0440297 26.0805134,41.0957304 26.6995996,42.3711972 L26.2222319,42.7590584 C24.9393062,43.6914172 24.663328,45.4964638 25.5061804,46.7719305 C25.9760892,47.3910168 26.6399286,47.7863369 27.4007334,47.9205965 C27.4902398,47.9280554 27.6244995,47.9355143 27.7214648,47.9355143 C27.997443,47.950432 28.2659623,47.9205965 28.4971873,47.8833022 C28.512105,48.524765 28.6612824,49.0767214 29.0416848,49.5988423 C29.548888,50.307435 30.354446,50.6281664 31.2196749,50.6729196 C31.443441,50.6878374 31.674666,50.6952962 31.8536789,50.710214 C31.7716313,51.3889712 31.9655619,52.0826461 32.3907175,52.6495202 C32.8606263,53.2686064 33.5244658,53.6639266 34.2852705,53.7981862 C34.374777,53.8056451 34.5090366,53.813104 34.6060019,53.813104 C35.2847591,53.8503983 35.9336808,53.6564677 36.4558017,53.2760653 L36.7392388,53.0597581 C36.8063686,53.4699959 36.9257106,53.8429394 37.1793121,54.1785886 C37.5597145,54.7007095 38.1340475,55.0512764 38.8128047,55.1780772 C38.9023111,55.1855361 38.9918176,55.1855361 39.0887829,55.1929949 C39.6332804,55.2228304 40.1852368,55.0661941 40.6626045,54.730545 L40.7073577,54.730545 L41.0430069,55.2004538 C41.6322576,56.050765 42.8555123,56.2521545 43.7058235,55.6629038 C44.4144162,55.1557006 44.6978532,54.1636709 44.3771218,53.3730306 L44.4367928,53.4625371 C44.9962081,54.2904717 46.0553676,54.6484974 46.9802675,54.268095 C48.0021327,53.8503983 48.4123706,52.7464855 48.1438513,51.799209 C48.8300673,52.5674726 50.0085688,52.7166501 50.85888,52.1273993 L50.9036332,52.0826461 C51.7539444,51.4933953 52.0000871,50.367106 51.545096,49.4720415 C52.2835242,50.1507987 53.4620257,50.2552229 54.3123369,49.6659722 C55.3043666,48.9424618 55.565427,47.547653 54.8419166,46.5481644 L53.7827571,45.0340138 L56.087548,42.3488206 C56.6917164,41.6402279 57.4152268,41.0435183 58.2207848,40.5736095 L59.3545331,39.9172289 L59.3545331,38.1420178 L57.7881703,39.0296233 C56.8931059,39.5368265 56.087548,40.1932071 55.4162496,40.9763884 L52.9399048,43.8480535 C52.2014766,43.1692963 51.0229751,43.0648721 50.1726639,43.6541228 C49.1806342,44.3776332 48.9195737,45.7724419 49.6430842,46.7719305 L49.6803785,46.8688959 L49.6356253,46.8688959 C48.9344915,46.3766104 47.9797561,46.3243983 47.2264102,46.8316015 L47.181657,46.8763547 C46.5178176,47.3388047 46.204545,48.1443627 46.3462635,48.927544 L46.1075797,49.099098 C45.4437403,48.7485311 44.6232645,48.7485311 43.9594251,49.2109811 C43.3477978,49.6361367 43.0345252,50.3894826 43.0867373,51.0756986 L42.4303567,51.4933953 C41.9380713,51.3740534 41.3861149,51.4859365 40.9609593,51.7768324 C40.4388384,52.1572348 40.1330247,52.7837799 40.1479425,53.3730306 L39.8197522,53.581879 C39.6258215,53.753433 39.3050901,53.8280217 39.0365708,53.7683507 C38.7680515,53.7086798 38.4995322,53.5595024 38.3279781,53.3208185 C38.1564241,53.1268879 38.0818354,52.8061565 38.1415064,52.5376372 C38.2011774,52.2691178 38.3503548,52.0005985 38.5890386,51.8290445 L42.1469197,49.1513101 C42.3333914,49.0245093 42.4378156,48.8454964 42.4452745,48.6217303 C42.4676511,48.2114925 42.1170842,47.8609256 41.7143052,47.8609256 C41.5576689,47.8609256 41.4308681,47.8982199 41.2966085,47.9728086 L35.6129494,52.090105 C35.2847591,52.2989533 34.9118156,52.4182952 34.5090366,52.3511654 C34.1062576,52.2840356 33.7482319,52.0826461 33.5393835,51.7544558 C33.0694747,51.1353696 33.2111932,50.1880931 33.8750327,49.7256431 L40.6476868,44.8922953 C40.7968642,44.7580356 40.9012883,44.5715639 40.9012883,44.3254211 C40.9087472,43.9375599 40.5880158,43.6093696 40.2001546,43.5944519 C39.9763884,43.586993 39.7973756,43.6690406 39.6481982,43.8405946 L33.0172626,48.6366481 C32.8307908,48.7186957 32.7338255,48.8529553 32.592107,48.9797561 C31.7940079,49.4869593 30.6155064,49.3750762 30.1903508,48.8082021 C29.7651952,48.1965747 29.8547017,47.376099 30.3842814,46.861437 L31.0481209,46.398987 L38.4174846,41.3717086 C38.6039563,41.2449078 38.7083805,41.0658949 38.7158394,40.8421288 C38.7307571,40.5959861 38.6114152,40.3647611 38.4100257,40.2230426 C38.1489653,40.0365708 37.8879048,40.0291119 37.6119266,40.1932071 L29.720442,45.5561347 C29.6682299,45.6456412 29.5787235,45.6829355 29.5265114,45.7276887 L28.7657066,46.2796451 C28.1466204,46.7495539 27.1993439,46.6078354 26.7368939,45.943996 C26.2669851,45.3249097 26.4087037,44.3776332 27.0725431,43.9151833 L41.952989,32.958103 C43.1464083,33.6592368 44.0265549,35.0689633 44.0265549,35.0689633 C45.4884935,39.6487096 47.3084578,39.6860039 48.4123706,39.1340475 C48.9867036,38.8506105 49.247764,38.1718533 49.0463745,37.5602259 C48.4645827,35.7924737 48.1289335,32.3688523 48.1289335,32.3688523 C47.7186957,31.4812468 46.4059345,30.548888 44.943996,29.7880832 L49.7251317,29.8626719 L51.2392824,29.8328365 Z" id="Path" fill="#000000" fill-rule="nonzero"></path>
                </g>
            </g>
        </g>
    </g>
</svg>