<?xml version="1.0" encoding="UTF-8"?>
<svg width="80px" height="80px" viewBox="0 0 80 80" version="1.1" xmlns="http://www.w3.org/2000/svg" xmlns:xlink="http://www.w3.org/1999/xlink">
    <!-- Generator: Sketch 61.1 (89650) - https://sketch.com -->
    <title>Discussions - Siena</title>
    <desc>Created with Sketch.</desc>
    <g id="Blackboard-Icons-★" stroke="none" stroke-width="1" fill="none" fill-rule="evenodd">
        <g id="Icons---Stroke" transform="translate(-1684.000000, -639.000000)">
            <g id="Discussions-Icons" transform="translate(48.000000, 639.000000)">
                <g id="Discussions---Siena" transform="translate(1636.000000, 0.000000)">
                    <circle id="Oval" stroke="#A4522E" stroke-width="4" cx="40" cy="40" r="38"></circle>
                    <path d="M53.1881409,26 C55.8413391,26 58,28.1618676 58,30.8199612 L58,30.8199612 L58,46.3758642 C58,49.0335298 55.8413391,51.1958254 53.1881409,51.1958254 L53.1881409,51.1958254 L37.9224243,51.1958254 L27.7947693,58.254902 L27.7947693,51.1958254 C25.1492615,51.1864101 23,49.0279663 23,46.3758642 L23,46.3758642 L23,30.8199612 C23,28.1618676 25.1586609,26 27.8118591,26 L27.8118591,26 Z M35,36.5 C33.8954305,36.5 33,37.3954305 33,38.5 C33,39.6045695 33.8954305,40.5 35,40.5 C36.1045695,40.5 37,39.6045695 37,38.5 C37,37.3954305 36.1045695,36.5 35,36.5 Z M41,36.5 C39.8954305,36.5 39,37.3954305 39,38.5 C39,39.6045695 39.8954305,40.5 41,40.5 C42.1045695,40.5 43,39.6045695 43,38.5 C43,37.3954305 42.1045695,36.5 41,36.5 Z M47,36.5 C45.8954305,36.5 45,37.3954305 45,38.5 C45,39.6045695 45.8954305,40.5 47,40.5 C48.1045695,40.5 49,39.6045695 49,38.5 C49,37.3954305 48.1045695,36.5 47,36.5 Z" id="Discussions" fill="#000000" fill-rule="nonzero"></path>
                </g>
            </g>
        </g>
    </g>
</svg>